<svg width="132" height="43" viewBox="0 0 132 43" fill="none" xmlns="http://www.w3.org/2000/svg">
<path fill-rule="evenodd" clip-rule="evenodd" d="M11.6337 0.18557V0H10.2634C9.9779 0 9.74953 0.0285473 9.56396 0.0713711C9.37839 0.114195 9.22134 0.18557 9.09287 0.285492C8.9644 0.385414 8.85023 0.499611 8.76459 0.62808C8.66466 0.756552 8.59327 0.91357 8.5219 1.09914L6.38072 6.45209L3.58292 1.09914C3.49728 0.94212 3.41162 0.785101 3.3117 0.65663C3.21178 0.528158 3.09758 0.413961 2.95484 0.314039C2.82637 0.214117 2.65505 0.142744 2.48376 0.0856457C2.31246 0.0285492 2.09834 0 1.85567 0H0.256931V0.18557L1.02777 0.371138V8.39343L0 8.77884V8.96441H2.44093V8.77884L1.41317 8.39343V1.58447L5.33866 9.09288H5.7241L8.7503 1.58447V8.59327L7.97946 8.77884V8.96441H11.6337V8.77884L10.8629 8.59327V0.371138L11.6337 0.18557ZM17.629 2.6123C17.215 2.45528 16.7297 2.38391 16.2015 2.38391C15.6591 2.38391 15.1881 2.45528 14.7741 2.6123C14.3601 2.76932 14.0033 2.98344 13.7035 3.28321C13.418 3.58297 13.1896 3.93983 13.0326 4.3538C12.8756 4.76776 12.8042 5.25309 12.8042 5.78125C12.8042 6.30941 12.8756 6.79474 13.0326 7.2087C13.1896 7.62266 13.4037 7.97953 13.7035 8.27929C14.0033 8.56478 14.3601 8.79318 14.7741 8.9502C15.1881 9.10722 15.6734 9.17859 16.2015 9.17859C16.7297 9.17859 17.215 9.10722 17.629 8.9502C18.043 8.79318 18.3998 8.57906 18.6996 8.27929C18.9851 7.97953 19.2135 7.62266 19.3705 7.2087C19.5275 6.79474 19.5989 6.30941 19.5989 5.78125C19.5989 5.25309 19.5275 4.76776 19.3705 4.3538C19.2135 3.93983 18.9994 3.58297 18.6996 3.28321C18.3998 2.99771 18.043 2.76932 17.629 2.6123ZM16.6441 8.79318C16.487 8.8931 16.3443 8.93592 16.2015 8.93592C16.0445 8.93592 15.9018 8.87882 15.759 8.79318C15.6163 8.69326 15.4878 8.52196 15.3736 8.29357C15.2594 8.06518 15.1595 7.73686 15.0881 7.33717C15.0168 6.93749 14.9739 6.4236 14.9739 5.79552C14.9739 5.18172 15.0168 4.66784 15.0881 4.25387C15.1595 3.85419 15.2594 3.54015 15.3736 3.29748C15.4878 3.05481 15.6163 2.8978 15.759 2.79787C15.9161 2.69795 16.0588 2.65513 16.2015 2.65513C16.3586 2.65513 16.5013 2.69795 16.6441 2.79787C16.7868 2.8978 16.9153 3.06909 17.0294 3.29748C17.1436 3.52587 17.2436 3.85419 17.315 4.25387C17.3863 4.65356 17.4291 5.16744 17.4291 5.79552C17.4291 6.40933 17.3863 6.92321 17.315 7.33717C17.2436 7.73686 17.1436 8.0509 17.0294 8.29357C16.9153 8.53623 16.7868 8.69326 16.6441 8.79318ZM25.8369 0C26.6078 0 26.9932 0.385412 26.9932 1.15624V8.60755L27.764 8.79311V8.97868H26.6078C26.2937 8.97868 26.051 8.93586 25.8655 8.83594C25.6799 8.73602 25.5229 8.62182 25.423 8.50762C25.2945 8.36488 25.1946 8.19358 25.1375 8.02229C25.0233 8.25068 24.8805 8.43625 24.7092 8.60755C24.5665 8.75029 24.3666 8.87876 24.124 9.00723C23.8813 9.1357 23.5958 9.1928 23.2675 9.1928C22.8964 9.1928 22.5538 9.12143 22.2397 8.97868C21.9114 8.83594 21.6402 8.62182 21.4118 8.33633C21.1834 8.05084 20.9836 7.69397 20.8551 7.28001C20.7124 6.85178 20.6553 6.36644 20.6553 5.79546C20.6553 5.22448 20.7267 4.73915 20.8551 4.31091C20.9979 3.88267 21.1834 3.54009 21.4404 3.2546C21.683 2.9691 21.9828 2.75499 22.3254 2.61224C22.668 2.46949 23.0534 2.39812 23.4816 2.39812C23.71 2.39812 23.9099 2.42667 24.0954 2.46949C24.281 2.52659 24.438 2.58369 24.5665 2.65506C24.7235 2.72644 24.852 2.81208 24.9662 2.91201V0.413963L24.1954 0.228392V0.0428238H25.8369V0ZM24.9376 3.28314L24.9374 3.28299C24.8376 3.18314 24.752 3.09754 24.6379 3.0262C24.538 2.95483 24.438 2.89773 24.3238 2.84063C24.2096 2.78353 24.0954 2.76926 23.967 2.76926C23.81 2.76926 23.6529 2.81208 23.5102 2.89773C23.3674 2.98338 23.2532 3.12612 23.139 3.34024C23.0391 3.55436 22.9535 3.8684 22.8964 4.25381C22.8393 4.6535 22.8107 5.15311 22.8107 5.78119C22.8107 6.39499 22.8393 6.88033 22.8964 7.26574C22.9535 7.65115 23.0249 7.95092 23.1248 8.16503C23.2104 8.37915 23.3104 8.53617 23.4388 8.60755C23.553 8.67892 23.6672 8.72174 23.7814 8.72174C23.9812 8.72174 24.1525 8.66464 24.2953 8.56472C24.438 8.4648 24.5522 8.33633 24.6521 8.20786C24.7663 8.05084 24.8663 7.87954 24.9519 7.69397V3.28314H24.9376ZM29.5054 8.29358C30.1049 8.89311 30.9614 9.19287 32.0605 9.19287C32.4316 9.19287 32.76 9.13577 33.0454 9.0073C33.3452 8.89311 33.6022 8.75036 33.8163 8.56479C34.0304 8.37922 34.2017 8.1651 34.3159 7.92244C34.4301 7.67977 34.4872 7.4371 34.4872 7.18016H34.1731C34.1731 7.39428 34.1303 7.59413 34.0304 7.79397C33.9305 7.99381 33.802 8.17938 33.6307 8.3364C33.4737 8.49342 33.2738 8.60762 33.0454 8.70754C32.8171 8.80746 32.5744 8.85028 32.3175 8.85028C32.1034 8.85028 31.8892 8.80746 31.7036 8.72181C31.5181 8.63617 31.3611 8.49342 31.2183 8.2793C31.0898 8.07946 30.9756 7.79397 30.9043 7.43711C30.8329 7.08024 30.7901 6.63773 30.7901 6.10957C31.304 6.10957 31.7893 6.08102 32.2604 6.05247C32.7314 6.02392 33.1454 5.9811 33.5022 5.924C33.9305 5.88118 34.3302 5.80981 34.7013 5.73843C34.7196 5.70169 34.7321 5.65904 34.7463 5.61048L34.7463 5.61028L34.7464 5.6102L34.7464 5.61005C34.7542 5.58327 34.7626 5.55469 34.7727 5.52432C34.7865 5.45564 34.8001 5.37374 34.8139 5.29135L34.8155 5.28165C34.8298 5.196 34.8298 5.0818 34.8298 4.96761C34.8298 4.61075 34.7584 4.28243 34.6157 3.96839C34.4729 3.65435 34.2731 3.38314 34.0019 3.15474C33.7306 2.92635 33.4166 2.74078 33.0312 2.59804C32.6601 2.46957 32.2318 2.39819 31.7465 2.39819C31.2754 2.39819 30.8472 2.46957 30.4618 2.62659C30.0621 2.78361 29.7338 2.99772 29.4626 3.29749C29.1913 3.59725 28.9772 3.95412 28.8202 4.36808C28.6632 4.78204 28.5918 5.26737 28.5918 5.79553C28.5918 6.85185 28.8916 7.69404 29.5054 8.29358ZM31.5466 5.76698C31.3182 5.78126 31.0613 5.78126 30.7758 5.78126C30.7758 5.12463 30.7758 4.59647 30.8329 4.18251C30.89 3.76855 30.9757 3.45451 31.0613 3.22612C31.1612 3.012 31.2612 2.85498 31.3753 2.76933C31.4895 2.68368 31.6037 2.64086 31.7179 2.64086C31.8321 2.64086 31.932 2.68368 32.0605 2.74078C32.189 2.79788 32.2889 2.92635 32.3745 3.08337C32.4745 3.25466 32.5458 3.46878 32.6029 3.72573C32.66 3.98267 32.6886 4.31098 32.6886 4.69639C32.6886 4.82487 32.6886 4.95333 32.6743 5.06753C32.6601 5.18173 32.6458 5.28165 32.6315 5.38157C32.6235 5.43784 32.6109 5.4941 32.5989 5.54782C32.5896 5.5895 32.5807 5.62964 32.5744 5.66706C32.5266 5.67237 32.4769 5.67965 32.4237 5.68744L32.4234 5.68747C32.3337 5.70062 32.2341 5.7152 32.1176 5.72416C31.9606 5.73843 31.775 5.75271 31.5466 5.76698ZM40.2255 2.82637C39.9686 2.82637 39.7402 2.88347 39.5403 2.98339C39.3405 3.08331 39.1692 3.21178 39.0264 3.34025C38.8694 3.49727 38.7409 3.66857 38.6125 3.85414V8.60756L39.3833 8.79312V8.97869H35.7861V8.79312L36.557 8.60756V2.95484L35.7861 2.76927V2.5837H36.9424C37.2421 2.5837 37.4848 2.6408 37.6846 2.74072C37.8702 2.84064 38.0272 2.95484 38.1414 3.06904C38.2699 3.21178 38.3698 3.3688 38.4269 3.54009C38.5554 3.35453 38.7124 3.18323 38.898 3.02621C39.055 2.89774 39.2549 2.78355 39.4975 2.66935C39.7402 2.55515 40.0114 2.51233 40.3397 2.51233C40.7965 2.51233 41.1391 2.62652 41.3675 2.82637C41.5959 3.04049 41.6958 3.34025 41.6958 3.72567C41.6958 4.01116 41.6101 4.25382 41.4388 4.42512C41.2675 4.59641 41.0249 4.68206 40.7394 4.68206H40.5395C40.4994 4.68206 40.4683 4.67754 40.4411 4.67358L40.441 4.67357L40.4212 4.67078C40.4078 4.66903 40.3952 4.66778 40.3825 4.66778C40.3645 4.66328 40.3465 4.6602 40.329 4.6572C40.2908 4.65067 40.2548 4.64451 40.2255 4.62496V2.82637ZM47.1344 3.73999C47.1915 3.9541 47.2201 4.21104 47.2201 4.49653V7.80823C47.2201 8.57905 47.6055 8.96447 48.3763 8.96447H50.0464V8.77889L49.2756 8.59333V4.48226C49.2756 4.21104 49.2185 3.9541 49.0901 3.69716C48.9616 3.44022 48.7903 3.2261 48.5762 3.02626C48.362 2.84069 48.1051 2.6694 47.7911 2.5552C47.4913 2.42673 47.1487 2.36963 46.7776 2.36963C46.435 2.36963 46.1352 2.42673 45.9068 2.5552C45.6784 2.68367 45.4786 2.81214 45.3359 2.95488C45.1646 3.12618 45.0218 3.32602 44.9076 3.54014C44.8505 3.36885 44.7506 3.21183 44.6221 3.06908C44.5079 2.95488 44.3509 2.84069 44.1653 2.74077C43.9655 2.64085 43.7228 2.58375 43.4231 2.58375H42.2668V2.76932L43.0376 2.95488V8.6076L42.2668 8.79317V8.97874H45.864V8.79317L45.0932 8.6076V3.85418C45.1788 3.66861 45.2645 3.49732 45.3787 3.3403C45.4643 3.21183 45.5928 3.08336 45.7355 2.98343C45.8783 2.88351 46.0496 2.82641 46.2494 2.82641C46.3636 2.82641 46.4778 2.86924 46.592 2.92633C46.7205 2.98343 46.8204 3.08336 46.9061 3.2261C47.006 3.35457 47.0773 3.52587 47.1344 3.73999ZM1.35596 18.0002V17.472H11.2767V18.0002L9.19266 18.5284V29.3056H16.6725V18.5284L14.5884 18.0002V17.472H24.5093V18.0002L22.4251 18.5284V40.7966L24.5093 41.3248V41.853H14.5884V41.3105L16.6725 40.7824V30.1764H9.19266V40.7824L11.2767 41.3105V41.8387H1.35596V41.3105L3.44003 40.7824V18.5141L1.35596 18.0002ZM40.7108 24.5379C39.5689 24.124 38.2842 23.9099 36.8424 23.9099C35.4007 23.9099 34.116 24.124 32.974 24.5379C31.8464 24.9519 30.8757 25.5514 30.0763 26.3651C29.2769 27.1787 28.6631 28.1351 28.2492 29.2771C27.8352 30.419 27.6211 31.7037 27.6211 33.1455C27.6211 34.5872 27.8352 35.8719 28.2492 37.0139C28.6631 38.1416 29.2769 39.1122 30.0763 39.9116C30.8757 40.711 31.8321 41.3248 32.974 41.7387C34.116 42.1527 35.4007 42.3668 36.8424 42.3668C38.2842 42.3668 39.5689 42.1527 40.7108 41.7387C41.8385 41.3248 42.8092 40.711 43.6085 39.9116C44.4079 39.1122 45.0217 38.1558 45.4357 37.0139C45.8496 35.8719 46.0638 34.5872 46.0638 33.1455C46.0638 31.7037 45.8496 30.419 45.4357 29.2771C45.0217 28.1351 44.4079 27.1644 43.6085 26.3651C42.8092 25.5657 41.8528 24.9519 40.7108 24.5379ZM38.0272 41.2677C37.6276 41.5246 37.2421 41.6531 36.8424 41.6531C36.4427 41.6531 36.0574 41.5246 35.6577 41.2677C35.2723 41.0107 34.9154 40.5682 34.6013 39.9259C34.2873 39.2835 34.0304 38.4128 33.8305 37.3136C33.6307 36.2145 33.5307 34.8156 33.5307 33.1169C33.5307 31.4183 33.6307 30.0193 33.8305 28.9202C34.0304 27.8211 34.2873 26.9503 34.6013 26.308C34.9154 25.6656 35.258 25.2231 35.6577 24.9662C36.0574 24.7092 36.4427 24.5808 36.8424 24.5808C37.2421 24.5808 37.6418 24.7092 38.0272 24.9662C38.4127 25.2231 38.7695 25.6656 39.0835 26.308C39.3976 26.9503 39.6545 27.8211 39.8544 28.9202C40.0542 30.0193 40.1541 31.4183 40.1541 33.1169C40.1541 34.8156 40.0542 36.2145 39.8544 37.3136C39.6545 38.4128 39.3976 39.2835 39.0835 39.9259C38.7695 40.5682 38.4269 41.0107 38.0272 41.2677ZM72.1436 29.6482C72.1436 28.8203 72.0722 28.1065 71.9295 27.5498C71.7867 26.9931 71.6154 26.5221 71.387 26.1652C71.1587 25.8084 70.916 25.5514 70.659 25.3801C70.3878 25.2231 70.1309 25.1374 69.8739 25.1374C69.4314 25.1374 69.046 25.2802 68.7034 25.5657C68.3608 25.8512 68.0754 26.1795 67.8184 26.5221C67.5472 26.936 67.2902 27.4071 67.0904 27.9067V40.7823L69.1888 41.3105V41.8387H59.4535V41.3105L61.5376 40.7823V29.6482C61.5376 28.8203 61.4662 28.1065 61.3235 27.5498C61.1807 26.9931 61.0094 26.5221 60.781 26.1652C60.5526 25.8084 60.31 25.5514 60.0531 25.3801C59.7818 25.2231 59.5249 25.1374 59.2679 25.1374C58.8254 25.1374 58.44 25.2802 58.0975 25.5657C57.7549 25.8512 57.4693 26.1795 57.2124 26.5221C56.9269 26.936 56.6843 27.4071 56.4844 27.9067V40.7823L58.5685 41.3105V41.8387H48.8333V41.3105L50.9174 40.7823V25.48L48.8333 24.9519V24.4237H51.9594C52.773 24.4237 53.4439 24.5665 53.9578 24.8377C54.486 25.1089 54.8857 25.4229 55.1997 25.737C55.5423 26.1367 55.7992 26.5649 55.9705 27.0217C56.2703 26.4364 56.6414 25.9225 57.0839 25.4515C57.4836 25.0518 57.969 24.6949 58.54 24.3666C59.1252 24.0383 59.8247 23.8813 60.6669 23.8813C62.0515 23.8813 63.2648 24.1953 64.264 24.8091C65.2775 25.4229 66.0484 26.2223 66.5765 27.193C66.8763 26.5934 67.2474 26.051 67.6899 25.5514C68.0896 25.1374 68.5749 24.752 69.1459 24.4094C69.7312 24.0669 70.4306 23.8813 71.2728 23.8813C72.2292 23.8813 73.0857 24.0383 73.8851 24.3381C74.6702 24.6378 75.3554 25.0518 75.9263 25.58C76.4973 26.1081 76.9398 26.7076 77.2539 27.4071C77.5679 28.1066 77.7249 28.8488 77.7249 29.6339V40.7681L79.809 41.2962V41.8244H75.284C73.1999 41.8244 72.1578 40.7823 72.1578 38.6983V29.6482H72.1436ZM84.3626 39.8973C86.0041 41.5389 88.3166 42.3525 91.2857 42.3525C92.2707 42.3525 93.1843 42.1955 94.0122 41.8958C94.8258 41.596 95.511 41.1963 96.0962 40.6967C96.6815 40.1971 97.124 39.6261 97.4381 38.9695C97.7521 38.3271 97.9091 37.6562 97.9091 36.9568H97.0384C97.0384 37.5135 96.9099 38.0702 96.6387 38.6126C96.3675 39.155 96.0106 39.6404 95.5538 40.0686C95.097 40.4969 94.5689 40.8394 93.9551 41.0964C93.3413 41.3533 92.6846 41.4818 91.9852 41.4818C91.3856 41.4818 90.8289 41.3533 90.315 41.1107C89.8012 40.868 89.3587 40.4683 88.9875 39.8973C88.6164 39.3263 88.3309 38.5555 88.1168 37.5991C87.9027 36.6427 87.8027 35.4437 87.8027 34.0019C89.1874 34.0019 90.5292 33.9448 91.7996 33.8449C93.07 33.7307 94.1977 33.6165 95.1684 33.4738C96.3104 33.331 97.3809 33.1597 98.4087 32.9456C98.4515 32.7886 98.5086 32.5888 98.58 32.3604C98.6244 32.2162 98.6515 32.0548 98.6815 31.8762L98.682 31.873C98.6868 31.8443 98.6917 31.8151 98.6968 31.7855C98.7006 31.7633 98.7045 31.7408 98.7085 31.718C98.7513 31.4753 98.7656 31.1899 98.7656 30.8615C98.7656 29.9051 98.58 29.0058 98.1946 28.1637C97.8092 27.3215 97.2525 26.5792 96.5388 25.9511C95.825 25.323 94.94 24.8234 93.9122 24.4523C92.8845 24.0811 91.7139 23.8956 90.415 23.8956C89.1731 23.8956 88.0169 24.1097 86.9606 24.5236C85.9042 24.9376 85.0049 25.5514 84.2626 26.3508C83.5204 27.1644 82.9351 28.1208 82.5211 29.2628C82.1072 30.4048 81.8931 31.6895 81.8931 33.1312C81.8931 36.0146 82.721 38.2557 84.3626 39.8973ZM89.8868 33.0741C89.2873 33.1169 88.5878 33.1312 87.8027 33.1312C87.8027 31.3469 87.8884 29.8909 88.0311 28.7775C88.2024 27.664 88.4023 26.7933 88.6449 26.1795C88.8876 25.5657 89.1588 25.1517 89.4728 24.9233C89.7869 24.7092 90.1009 24.595 90.4007 24.595C90.7004 24.595 91.0145 24.6949 91.3286 24.8805C91.6283 25.0661 91.9138 25.3801 92.1565 25.8226C92.3991 26.2651 92.6132 26.8361 92.7703 27.5498C92.9273 28.2636 93.0129 29.1343 93.0129 30.1764C93.0129 30.5189 92.9844 30.8473 92.9558 31.1613C92.9273 31.4753 92.8845 31.7608 92.8417 32.0178C92.7703 32.3033 92.7132 32.5602 92.6704 32.7886C92.3135 32.86 91.8995 32.9171 91.4142 32.9599C91.1191 32.9904 90.7733 33.0137 90.382 33.0401L90.1411 33.0564C90.0581 33.062 89.9734 33.0679 89.8868 33.0741ZM115.852 41.4818V27.3643L103.376 17.4863V41.4818H115.852ZM131.283 27.3643V41.4818H119.007V17.4863L131.283 27.3643Z" fill="#292F36"/>
</svg>
