<svg aria-hidden="true" style="position:absolute;width:0;height:0;overflow:hidden" xmlns="http://www.w3.org/2000/svg">
  <defs>
    <symbol id="_interno" viewBox="0 0 151 32">
      <path d="M1.006 30.857V30.4l.914-.366c.61-.213 1.006-.503 1.189-.869.213-.366.32-.853.32-1.463V3.839c0-.61-.091-1.097-.274-1.463s-.594-.655-1.234-.869l-.914-.366V.684h11.749v.457l-.914.366c-.61.213-1.021.503-1.234.869-.183.366-.274.853-.274 1.463v23.863c0 .61.091 1.097.274 1.463.213.335.625.625 1.234.869l.914.366v.457H1.007zm13.658 0V30.4l.64-.183c1.067-.305 1.6-1.051 1.6-2.24V13.668c0-.671-.107-1.158-.32-1.463-.213-.335-.625-.564-1.234-.686l-.686-.183v-.457l7.817-2.651.457.457.366 2.743c1.067-.945 2.27-1.722 3.611-2.331s2.667-.914 3.977-.914c2.011 0 3.55.549 4.617 1.646 1.097 1.097 1.646 2.773 1.646 5.029v13.166c0 1.189.579 1.935 1.737 2.24l.411.137v.457H28.514v-.457l.594-.183c1.067-.335 1.6-1.082 1.6-2.24V13.395c0-1.95-.975-2.926-2.926-2.926-1.341 0-2.804.671-4.389 2.011v15.543c0 1.189.533 1.935 1.6 2.24l.411.137v.457H14.661zm34.891.686c-1.95 0-3.474-.488-4.571-1.463-1.067-.975-1.6-2.529-1.6-4.663V9.783H40.23v-.457l1.097-.183c.945-.213 1.752-.518 2.423-.914.701-.396 1.387-.929 2.057-1.6l3.749-4.16h.457l-.137 6.4h5.12v.914H49.83V26.24c0 1.067.229 1.874.686 2.423a2.345 2.345 0 0 0 1.829.823c.64 0 1.204-.152 1.691-.457.488-.335.975-.777 1.463-1.326l.457.457c-.609 1.036-1.448 1.859-2.514 2.469s-2.362.914-3.886.914zm19.173-23.36c1.981 0 3.672.411 5.074 1.234 1.402.792 2.469 1.889 3.2 3.291.762 1.371 1.143 2.941 1.143 4.709 0 .335-.015.686-.046 1.051-.031.335-.091.64-.183.914H64.293c.031 3.291.609 5.669 1.737 7.131 1.158 1.432 2.865 2.149 5.12 2.149 1.523 0 2.758-.244 3.703-.731s1.829-1.204 2.651-2.149l.457.411c-.945 1.676-2.209 2.987-3.794 3.931-1.554.945-3.429 1.417-5.623 1.417-2.163 0-4.083-.457-5.76-1.371-1.676-.945-2.987-2.286-3.931-4.023s-1.417-3.809-1.417-6.217c0-2.499.549-4.617 1.646-6.354 1.097-1.768 2.499-3.109 4.206-4.023 1.737-.914 3.551-1.371 5.44-1.371zm-.137.914c-.883 0-1.646.274-2.286.823-.609.518-1.097 1.463-1.463 2.834-.335 1.341-.518 3.246-.549 5.714h7.817c.305-3.322.183-5.714-.366-7.177s-1.6-2.194-3.154-2.194zm11.832 21.76V30.4l.686-.183c.61-.183 1.022-.457 1.234-.823.245-.366.366-.838.366-1.417V13.668c0-.671-.121-1.158-.366-1.463-.213-.335-.624-.564-1.234-.686l-.686-.183v-.457l7.863-2.651.457.457.411 3.931v.366a9.538 9.538 0 0 1 1.646-2.331 9.696 9.696 0 0 1 2.286-1.783c.854-.457 1.691-.686 2.514-.686 1.159 0 2.042.32 2.651.96.61.64.914 1.448.914 2.423 0 1.036-.304 1.844-.914 2.423-.578.549-1.28.823-2.103.823-1.28 0-2.407-.64-3.383-1.92l-.091-.091c-.304-.427-.655-.655-1.051-.686-.395-.061-.761.122-1.097.549a3.72 3.72 0 0 0-.777 1.006c-.183.366-.366.792-.549 1.28v12.754c0 1.219.534 1.981 1.6 2.286l1.463.411v.457h-11.84zm20.179 0V30.4l.64-.183c1.066-.305 1.6-1.051 1.6-2.24V13.668c0-.671-.107-1.158-.32-1.463-.214-.335-.625-.564-1.234-.686l-.686-.183v-.457l7.817-2.651.457.457.366 2.743a14.352 14.352 0 0 1 3.611-2.331c1.341-.61 2.666-.914 3.977-.914 2.011 0 3.55.549 4.617 1.646 1.097 1.097 1.646 2.773 1.646 5.029v13.166c0 1.189.578 1.935 1.737 2.24l.411.137v.457h-10.789v-.457l.594-.183c1.066-.335 1.6-1.082 1.6-2.24V13.395c0-1.95-.976-2.926-2.926-2.926-1.342 0-2.805.671-4.389 2.011v15.543c0 1.189.533 1.935 1.6 2.24l.411.137v.457h-10.743zm37.995.686c-2.317 0-4.328-.472-6.034-1.417-1.707-.975-3.033-2.347-3.977-4.114-.914-1.768-1.371-3.84-1.371-6.217s.487-4.434 1.463-6.171c1.006-1.737 2.361-3.078 4.069-4.023 1.737-.945 3.687-1.417 5.851-1.417 2.163 0 4.098.472 5.806 1.417 1.706.914 3.047 2.24 4.023 3.977 1.006 1.737 1.509 3.809 1.509 6.217s-.473 4.495-1.417 6.263a9.92 9.92 0 0 1-3.931 4.069c-1.677.945-3.673 1.417-5.989 1.417zm0-.914c1.066 0 1.92-.305 2.56-.914s1.097-1.691 1.371-3.246c.304-1.554.457-3.749.457-6.583 0-2.865-.153-5.074-.457-6.629-.274-1.554-.731-2.636-1.371-3.246s-1.494-.914-2.56-.914c-1.067 0-1.936.305-2.606.914-.64.61-1.113 1.691-1.417 3.246-.274 1.554-.411 3.764-.411 6.629 0 2.834.137 5.029.411 6.583.304 1.554.777 2.636 1.417 3.246.67.61 1.538.914 2.606.914z"/>
    </symbol>
    <symbol id="_logo" viewBox="0 0 32 32">
      <path d="M0 32h12.667v-8.942a3.43 3.43 0 1 1 6.86 0V32h12.47V0C14.325 0-.001 14.326-.001 32z"/>
    </symbol>
    <symbol id="_phone" viewBox="0 0 32 32">
      <path stroke-miterlimit="10" stroke-width="1.882" d="M30.119 24.541c-1.15-1.158-3.934-2.849-5.285-3.53-1.759-.886-1.904-.959-3.287.069-.922.686-1.536 1.298-2.615 1.068s-3.425-1.528-5.479-3.576c-2.054-2.047-3.427-4.461-3.658-5.537s.392-1.682 1.071-2.606c.957-1.303.885-1.52.067-3.28-.638-1.368-2.378-4.127-3.54-5.27C6.149.65 6.149.868 5.348 1.201c-.652.274-1.278.608-1.87.997-1.158.77-1.801 1.409-2.251 2.369s-.652 3.213 1.67 7.431 3.951 6.374 7.323 9.736 5.964 5.17 9.754 7.295c4.689 2.626 6.487 2.114 7.451 1.665s1.606-1.086 2.377-2.244c.39-.591.724-1.216.999-1.868.334-.799.551-.799-.68-2.042z"/>
    </symbol>
    <symbol id="_vector" viewBox="0 0 23 32">
      <path d="m14.458 1.186-.414-.684-1.369.828 7.913 13.078-19.821.826.067 1.599 20.559-.857-8.891 14.694 1.369.828 9.214-15.228a.8.8 0 0 0 0-.828L14.459 1.186z"/>
    </symbol>
     <symbol id="_brand" viewBox="0 0 122 32">
      <path d="M5.938 31.833A5.937 5.937 0 0 1 0 25.895V5.937A5.937 5.937 0 0 1 5.938-.001h19.958a5.937 5.937 0 0 1 5.938 5.938v19.958a5.937 5.937 0 0 1-5.938 5.938H5.938zm16.57-13.146c0-.937-.288-1.766-.856-2.478s-1.334-1.18-2.316-1.415c.838-.198 1.514-.613 2.027-1.261s.775-1.451.775-2.424c0-1.316-.45-2.334-1.343-3.046s-2.153-1.072-3.793-1.072H9.704v16.083h7.479c1.712 0 3.027-.396 3.947-1.162s1.379-1.847 1.379-3.226zm-6.371-5.118h-2.55v-3.46h2.505c1.379 0 2.072.577 2.072 1.73s-.676 1.73-2.027 1.73zm1.82 3.226c.378.324.568.775.568 1.352 0 1.18-.721 1.766-2.153 1.775h-2.775v-3.613h2.748c.694 0 1.234.162 1.613.487zm32.32 6.28-3.478-6.073h-.883v6.073h-3.892V6.992h6.641c1.27 0 2.352.216 3.226.658.883.442 1.541 1.045 1.982 1.811s.658 1.64.658 2.631c0 1.171-.324 2.162-.964 2.982-.649.82-1.577 1.379-2.811 1.685l3.82 6.325h-4.298v-.009zm-4.361-8.731h2.406c.775 0 1.343-.171 1.703-.514s.55-.847.55-1.514c0-.64-.189-1.135-.559-1.505-.369-.36-.937-.55-1.694-.55h-2.406v4.082zm20.192 5.803h6.028l1.009 2.937h4.136L71.388 7.118H66.91l-5.893 15.966h4.091l1-2.937zm3.028-8.875 2 5.911h-4.028l2.027-5.911zm29.617 11.803H94.86L88.355 13.2v9.875h-3.893V6.992h3.893l6.505 9.965V6.992h3.893v16.083zm18.912-1.018c1.261-.685 2.234-1.64 2.91-2.856.667-1.225 1.009-2.622 1.009-4.19 0-1.586-.333-2.973-1.009-4.19s-1.639-2.153-2.901-2.82c-1.252-.667-2.748-1-4.478-1h-6.073v16.083h6.073c1.712 0 3.198-.342 4.47-1.027zm-.018-7.055c0 1.451-.423 2.586-1.261 3.388-.838.811-2.018 1.207-3.541 1.207h-1.838v-9.19h1.838c1.523 0 2.703.405 3.541 1.207s1.261 1.928 1.261 3.388z"/>
    </symbol>
    <symbol id="_classic" viewBox="0 0 78 32">
      <path d="M0 19.47V0h11.467v19.461L0 19.471zm10.078-4.529.295-2.151-1.066-.105-.324 1.656c-.666.333-1.485.495-2.465.495-1.332 0-2.389-.419-3.159-1.266-.78-.847-1.161-1.96-1.161-3.35 0-1.351.381-2.465 1.132-3.34s1.742-1.313 2.969-1.313c.628 0 1.161.076 1.589.219s.818.333 1.19.58l.314 1.637 1.085-.105-.314-2.151a5.704 5.704 0 0 0-1.627-.952c-.628-.238-1.408-.362-2.332-.362-1.094 0-2.037.266-2.826.809S1.97 6.498 1.532 7.383a6.471 6.471 0 0 0-.657 2.883c0 1.627.504 2.988 1.513 4.073s2.322 1.627 3.949 1.627c1.599 0 2.845-.343 3.74-1.028zM15.359 19.47V0h4.929v19.461h-4.929v.01zm.524-3.673h3.892v-.98h-1.342V3.949h-2.569v.98h1.361v9.888h-1.342v.98zM24.181 19.47V0h8.66v19.461h-8.66v.01zm1.57-10.753-.276 1.77.999.124.295-1.323c.428-.209.914-.314 1.485-.314.685 0 1.152.171 1.389.514s.352.79.352 1.342v.685a16.526 16.526 0 0 0-1.361-.067c-.856 0-1.675.152-2.436.457s-1.142.942-1.142 1.903c0 .818.257 1.38.78 1.684.523.314 1.037.466 1.542.466.619 0 1.151-.162 1.589-.485s.78-.685 1.028-1.104v.038c.019 1.037.485 1.551 1.399 1.551.352 0 .685-.086.999-.257l-.019-.79a1.265 1.265 0 0 1-.514.105c-.438 0-.657-.276-.657-.828v-3.645c0-1.713-.914-2.569-2.741-2.569-.504 0-.98.057-1.427.171a4.582 4.582 0 0 0-1.285.571zm4.235 4.206c-.048.628-.305 1.132-.771 1.494-.466.371-.961.552-1.494.552-.333 0-.657-.095-.961-.276-.314-.181-.466-.523-.466-1.018 0-.6.238-.98.695-1.161.466-.181.98-.266 1.561-.266.257 0 .504.01.742.038.238.019.476.038.685.048v.59h.01zM36.743 19.47V0h7.87v19.461h-7.87v.01zm7.042-5.89c0-.609-.162-1.056-.485-1.351s-.714-.495-1.19-.609c-.476-.114-.942-.209-1.408-.285s-.866-.2-1.19-.362c-.324-.162-.485-.447-.485-.856 0-.39.152-.676.466-.866s.704-.276 1.19-.276a3.3 3.3 0 0 1 1.57.381l.19 1.237.999-.124-.19-1.789c-.324-.2-.714-.362-1.18-.495s-.961-.209-1.494-.209c-.704 0-1.351.171-1.951.504s-.895.904-.895 1.722c0 .6.162 1.037.485 1.313.324.285.723.476 1.209.59s.961.209 1.437.295c.476.076.875.209 1.199.381s.485.466.485.895c0 .438-.209.761-.628.971s-.895.314-1.437.314c-.609 0-1.18-.124-1.703-.381l.048-1.018-.961-.105-.238 1.741c.333.219.771.4 1.304.542s1.066.219 1.608.219c.923 0 1.694-.209 2.313-.638.619-.409.933-.999.933-1.741zM48.505 19.47V0h7.87v19.461h-7.87v.01zm7.042-5.89c0-.609-.162-1.056-.485-1.351s-.714-.495-1.19-.609c-.476-.114-.942-.209-1.408-.285s-.866-.2-1.19-.362c-.324-.162-.485-.447-.485-.856 0-.39.152-.676.466-.866s.704-.276 1.19-.276a3.3 3.3 0 0 1 1.57.381l.19 1.237.999-.124-.19-1.789c-.324-.2-.714-.362-1.18-.495s-.961-.209-1.494-.209c-.704 0-1.351.171-1.951.504s-.895.904-.895 1.722c0 .6.162 1.037.485 1.313.324.285.723.476 1.209.59s.961.209 1.437.295c.476.076.876.209 1.199.381s.485.466.485.895c0 .438-.209.761-.628.971s-.895.314-1.437.314c-.609 0-1.18-.124-1.703-.381l.048-1.018-.961-.105-.238 1.741c.333.219.771.4 1.304.542s1.066.219 1.608.219c.923 0 1.694-.209 2.313-.638.619-.409.933-.999.933-1.741zM60.267 19.47V0h5.186v19.461h-5.186v.01zm.761-3.673h3.892v-.98h-1.342V8.136h-2.579v.98h1.38v5.7h-1.342v.98h-.01zm1.219-11.21v1.57h1.313v-1.57h-1.313zM69.346 19.47V0h8.289v19.461h-8.289v.01zm7.546-6.252-1.037-.228c-.228 1.294-.923 1.941-2.065 1.941-.761 0-1.342-.257-1.741-.771s-.6-1.237-.6-2.151c0-.828.181-1.532.533-2.122s.942-.875 1.76-.875c.629 0 1.18.143 1.637.428l.295 1.294.999-.124-.295-1.846c-.39-.295-.799-.504-1.227-.619s-.895-.171-1.399-.171c-1.19 0-2.094.419-2.684 1.256-.599.837-.895 1.789-.895 2.845 0 1.228.314 2.189.952 2.864.628.685 1.475 1.028 2.531 1.028s1.837-.295 2.331-.876c.495-.59.799-1.209.904-1.875zM4.958 30.1c-.219.4-.542.714-.961.933-.428.219-.933.333-1.523.333H.771v-5.367h1.703c.59 0 1.104.105 1.523.324s.742.523.961.933c.219.409.324.876.324 1.427 0 .542-.105 1.018-.324 1.418zm-.942.105c.371-.362.552-.866.552-1.523s-.181-1.161-.552-1.523c-.371-.362-.904-.542-1.608-.542h-.961v4.13h.961c.704 0 1.237-.181 1.608-.542zM8.812 26.56v1.837h2.037v.533H8.812v1.875h2.265v.561h-2.96v-5.367h2.96v.561H8.812zM17.091 30.681c-.124.219-.305.4-.552.533s-.552.209-.923.209a2.34 2.34 0 0 1-.952-.19 1.76 1.76 0 0 1-.666-.533 1.572 1.572 0 0 1-.285-.771h.742c.019.152.067.305.152.447s.219.266.381.362c.162.095.362.143.6.143.304 0 .542-.076.704-.247s.247-.371.247-.628c0-.219-.057-.4-.171-.533s-.257-.247-.419-.324-.4-.162-.685-.257c-.343-.114-.609-.219-.818-.314s-.381-.247-.523-.447c-.143-.2-.219-.457-.219-.78a1.4 1.4 0 0 1 .2-.742c.133-.209.324-.381.58-.495a2.13 2.13 0 0 1 .885-.171c.523 0 .952.124 1.256.381.314.257.485.58.542.98h-.742a1.024 1.024 0 0 0-.324-.561c-.181-.162-.419-.247-.723-.247-.276 0-.504.076-.666.219-.171.143-.247.352-.247.609a.76.76 0 0 0 .162.504c.114.133.247.228.409.305s.39.152.666.247c.343.114.619.219.837.324.209.105.39.257.533.457s.219.476.219.818a1.664 1.664 0 0 1-.2.704zM20.803 25.999v5.367h-.695v-5.367h.695zM27.826 26.408c.428.314.714.733.856 1.266h-.733a1.6 1.6 0 0 0-.638-.78c-.295-.2-.647-.295-1.056-.295-.362 0-.695.086-.98.257s-.514.409-.685.723a2.398 2.398 0 0 0-.247 1.113c0 .438.086.818.247 1.132s.4.561.695.733.638.257 1.028.257c.333 0 .628-.076.904-.209.276-.143.495-.352.676-.619s.276-.59.314-.952h-2.113v-.514h2.693v.638c-.048.428-.181.809-.4 1.161s-.514.619-.885.818c-.371.2-.79.305-1.266.305-.514 0-.971-.114-1.37-.343s-.704-.552-.923-.971c-.219-.409-.333-.885-.333-1.418s.114-1.009.333-1.418c.219-.409.533-.742.923-.971s.847-.352 1.361-.352c.647-.019 1.171.133 1.599.438zM35.81 31.366h-.695l-2.788-4.244v4.244h-.695v-5.367h.695l2.788 4.244v-4.244h.695v5.367zM45.821 30.681c-.124.219-.305.4-.552.533s-.552.209-.923.209a2.34 2.34 0 0 1-.952-.19 1.76 1.76 0 0 1-.666-.533 1.583 1.583 0 0 1-.286-.771h.742c.019.152.067.305.152.447s.219.266.381.362c.162.095.362.143.6.143.305 0 .542-.076.704-.247s.247-.371.247-.628c0-.219-.057-.4-.171-.533s-.257-.247-.419-.324-.4-.162-.685-.257c-.343-.114-.609-.219-.818-.314s-.381-.247-.523-.447c-.143-.2-.219-.457-.219-.78a1.4 1.4 0 0 1 .2-.742c.133-.209.324-.381.581-.495a2.13 2.13 0 0 1 .885-.171c.523 0 .952.124 1.256.381.314.257.485.58.542.98h-.742a1.024 1.024 0 0 0-.324-.561c-.181-.162-.419-.247-.723-.247-.276 0-.504.076-.666.219-.171.143-.247.352-.247.609a.76.76 0 0 0 .162.504c.114.133.247.228.409.305s.39.152.666.247c.343.114.619.219.837.324.209.105.39.257.533.457s.219.476.219.818a1.664 1.664 0 0 1-.2.704zM52.131 25.999v.561h-1.513v4.806h-.704V26.56h-1.513v-.561h3.73zM55.366 25.999v3.217c0 .523.114.914.352 1.17.238.247.552.381.971.381.409 0 .723-.124.952-.381s.343-.638.343-1.161v-3.217h.695v3.217c0 .733-.181 1.285-.542 1.646-.362.371-.847.552-1.456.552-.6 0-1.085-.181-1.446-.552s-.542-.914-.542-1.646v-3.217h.676v-.01zM65.844 30.1c-.219.4-.542.714-.961.933-.428.219-.933.333-1.523.333h-1.703v-5.367h1.703c.59 0 1.104.105 1.523.324s.742.523.961.933.324.876.324 1.427c0 .542-.105 1.018-.324 1.418zm-.933.105c.371-.362.552-.866.552-1.523s-.181-1.161-.552-1.523c-.371-.362-.904-.542-1.608-.542h-.961v4.13h.961c.695 0 1.237-.181 1.608-.542zM69.707 25.999v5.367h-.695v-5.367h.695zM76.521 26.284c.399.238.713.561.942.98s.343.895.343 1.418-.115.999-.343 1.418a2.53 2.53 0 0 1-2.284 1.332 2.6 2.6 0 0 1-1.351-.352c-.4-.238-.723-.561-.952-.98s-.342-.895-.342-1.418.114-.999.342-1.418c.229-.419.543-.742.952-.98s.857-.352 1.351-.352c.495 0 .942.114 1.342.352zm-2.341.552a1.701 1.701 0 0 0-.685.733 2.41 2.41 0 0 0-.247 1.113c0 .419.086.79.247 1.113s.39.561.685.733c.295.171.619.257.99.257.361 0 .695-.086.989-.257s.523-.419.685-.733.247-.685.247-1.104c0-.428-.085-.799-.247-1.113s-.39-.561-.685-.733a1.922 1.922 0 0 0-.989-.257 1.845 1.845 0 0 0-.99.247z"/>
    </symbol>
    <symbol id="_home" viewBox="0 0 98 32">
      <path d="M8.658.138V0h-1.02c-.212 0-.382.021-.521.053s-.255.085-.351.159a1.07 1.07 0 0 0-.244.255 1.358 1.358 0 0 0-.181.351L4.748 4.802 2.666.818C2.602.701 2.539.584 2.464.489a1.22 1.22 0 0 0-.617-.425A1.493 1.493 0 0 0 1.38 0H.19v.138l.574.138v5.97l-.765.287v.138h1.817v-.138l-.765-.287V1.179l2.921 5.588h.287l2.252-5.588v5.216l-.574.138v.138h2.719v-.138l-.574-.138V.276l.574-.138zm4.461 1.806a3.008 3.008 0 0 0-1.062-.17c-.404 0-.754.053-1.062.17s-.574.276-.797.499c-.212.223-.382.489-.499.797s-.17.669-.17 1.062.053.754.17 1.062.276.574.499.797c.223.212.489.382.797.499s.669.17 1.062.17.754-.053 1.062-.17.574-.276.797-.499c.212-.223.382-.489.499-.797s.17-.669.17-1.062-.053-.754-.17-1.062-.276-.574-.499-.797a2.369 2.369 0 0 0-.797-.499zm-.733 4.6a.603.603 0 0 1-.329.106.64.64 0 0 1-.329-.106c-.106-.074-.202-.202-.287-.372s-.159-.414-.212-.712a6.674 6.674 0 0 1-.085-1.147c0-.457.032-.839.085-1.147.053-.297.127-.531.212-.712s.181-.297.287-.372a.603.603 0 0 1 .329-.106c.117 0 .223.032.329.106s.202.202.287.372c.085.17.159.414.213.712s.085.68.085 1.147c0 .457-.032.839-.085 1.147-.053.297-.128.531-.213.712s-.181.297-.287.372zM19.227 0c.574 0 .861.287.861.86v5.545l.574.138v.138h-.86c-.234 0-.414-.032-.552-.106s-.255-.159-.329-.244a1.032 1.032 0 0 1-.212-.361c-.085.17-.191.308-.319.436-.106.106-.255.202-.436.297s-.393.138-.637.138c-.276 0-.531-.053-.765-.159-.244-.106-.446-.266-.616-.478s-.319-.478-.414-.786c-.106-.319-.149-.68-.149-1.105s.053-.786.149-1.105c.106-.319.244-.574.436-.786.181-.212.404-.372.659-.478a2.223 2.223 0 0 1 1.317-.106c.138.042.255.085.351.138.117.053.212.117.297.191V.308L18.008.17V.032h1.222V0zm-.669 2.443c-.074-.074-.138-.138-.223-.191-.074-.053-.149-.096-.234-.138s-.17-.053-.266-.053c-.117 0-.234.032-.34.096s-.191.17-.276.329a2.597 2.597 0 0 0-.181.68 8.136 8.136 0 0 0-.064 1.137c0 .457.021.818.064 1.105s.096.51.17.669c.064.159.138.276.234.329.085.053.17.085.255.085.149 0 .276-.043.382-.117s.191-.17.266-.266c.085-.117.159-.244.223-.382V2.444h-.011zm3.399 3.729c.446.446 1.084.669 1.901.669.276 0 .521-.043.733-.138.223-.085.414-.191.574-.329s.287-.297.372-.478c.085-.181.127-.361.127-.552h-.234c0 .159-.032.308-.106.457a1.37 1.37 0 0 1-.733.68 1.34 1.34 0 0 1-.542.106c-.159 0-.319-.032-.457-.096s-.255-.17-.361-.329c-.096-.149-.181-.361-.234-.627s-.085-.595-.085-.988c.382 0 .744-.021 1.094-.043s.659-.053.924-.096c.319-.032.616-.085.892-.138.014-.027.023-.059.034-.095l.02-.064.031-.173.001-.007c.011-.064.011-.149.011-.234a1.769 1.769 0 0 0-.616-1.35 2.388 2.388 0 0 0-.722-.414 2.903 2.903 0 0 0-.956-.149c-.351 0-.669.053-.956.17-.297.117-.542.276-.744.499s-.361.489-.478.797-.17.669-.17 1.062c0 .786.223 1.413.68 1.859zm1.52-1.88c-.17.011-.361.011-.574.011 0-.489 0-.882.043-1.19s.106-.542.17-.712c.074-.159.149-.276.234-.34s.17-.096.255-.096.159.032.255.074c.096.042.17.138.234.255.074.127.127.287.17.478s.064.436.064.722c0 .096 0 .191-.011.276l-.032.234a1.6 1.6 0 0 1-.024.124c-.007.031-.014.061-.018.089a2.686 2.686 0 0 0-.112.015c-.067.01-.141.021-.228.027-.117.011-.255.021-.425.032zm6.458-2.189c-.191 0-.361.042-.51.117s-.276.17-.382.266a2.724 2.724 0 0 0-.308.382v3.537l.574.138v.138h-2.677v-.138l.574-.138V2.198l-.574-.138v-.138h.861c.223 0 .404.042.552.117.138.074.255.159.34.244.096.106.17.223.212.351.096-.138.212-.266.351-.382.117-.096.266-.181.446-.266s.382-.117.627-.117c.34 0 .595.085.765.234.17.159.244.382.244.669 0 .212-.064.393-.191.521s-.308.191-.52.191h-.149a.466.466 0 0 1-.073-.006l-.015-.002-.029-.002a.566.566 0 0 0-.04-.008c-.028-.005-.055-.009-.077-.024V2.103zm5.142.68c.042.159.064.351.064.563v2.465c0 .574.287.86.86.86h1.243v-.138l-.574-.138V3.336c0-.202-.042-.393-.138-.584a1.743 1.743 0 0 0-.966-.85 1.901 1.901 0 0 0-.754-.138c-.255 0-.478.042-.648.138s-.319.191-.425.297a1.832 1.832 0 0 0-.319.436 1.016 1.016 0 0 0-.212-.351 1.467 1.467 0 0 0-.34-.244 1.22 1.22 0 0 0-.552-.117h-.861v.138l.574.138v4.207l-.574.138v.138h2.677v-.138l-.574-.138V2.869c.064-.138.127-.266.212-.382.064-.096.159-.191.266-.266s.234-.117.382-.117a.59.59 0 0 1 .255.074.52.52 0 0 1 .234.223c.074.096.127.223.17.382zM1.009 13.396v-.393h7.383v.393l-1.551.393v8.02h5.566v-8.02l-1.551-.393v-.393h7.383v.393l-1.551.393v16.572l1.551.393v.393h-7.383v-.404l1.551-.393v-7.893H6.841v7.893l1.551.393v.393H1.009v-.393l1.551-.393V13.778l-1.551-.382zm29.287 4.865c-.85-.308-1.806-.467-2.879-.467s-2.029.159-2.879.467c-.839.308-1.562.754-2.156 1.36s-1.052 1.317-1.36 2.167c-.308.85-.467 1.806-.467 2.879s.159 2.029.467 2.879c.308.839.765 1.562 1.36 2.156s1.307 1.052 2.156 1.36c.85.308 1.806.467 2.879.467s2.029-.159 2.879-.467c.839-.308 1.562-.765 2.156-1.36s1.052-1.307 1.36-2.156c.308-.85.467-1.806.467-2.879s-.159-2.029-.467-2.879c-.308-.85-.765-1.572-1.36-2.167s-1.307-1.052-2.156-1.36zm-1.997 12.45c-.297.191-.584.287-.882.287s-.584-.096-.882-.287c-.287-.191-.552-.521-.786-.999s-.425-1.126-.574-1.944c-.149-.818-.223-1.859-.223-3.123s.074-2.305.223-3.123c.149-.818.34-1.466.574-1.944s.489-.807.786-.999c.297-.191.584-.287.882-.287s.595.096.882.287c.287.191.552.52.786.999s.425 1.126.574 1.944c.149.818.223 1.859.223 3.123s-.074 2.305-.223 3.123c-.149.818-.34 1.466-.574 1.944s-.489.807-.786.999zm25.389-8.647c0-.616-.053-1.147-.159-1.562s-.234-.765-.404-1.03a1.92 1.92 0 0 0-.542-.584c-.202-.117-.393-.181-.584-.181-.329 0-.616.106-.871.319s-.467.457-.659.712a5.935 5.935 0 0 0-.542 1.03v9.582l1.562.393v.393h-7.245v-.393l1.551-.393v-8.286c0-.616-.053-1.147-.159-1.562s-.234-.765-.404-1.03a1.92 1.92 0 0 0-.542-.584c-.202-.117-.393-.181-.584-.181-.329 0-.616.106-.871.319s-.468.457-.659.712a5.321 5.321 0 0 0-.542 1.03v9.582l1.551.393v.393H36.34v-.393l1.551-.393V18.962l-1.551-.393v-.393h2.326c.605 0 1.105.106 1.487.308.393.202.691.436.924.669.255.297.446.616.574.956.223-.436.499-.818.829-1.169a5.132 5.132 0 0 1 1.084-.807c.435-.244.956-.361 1.583-.361 1.03 0 1.933.234 2.677.69a4.672 4.672 0 0 1 1.721 1.774c.223-.446.499-.85.829-1.222a5.256 5.256 0 0 1 1.084-.85c.436-.255.956-.393 1.583-.393.712 0 1.349.117 1.944.34.584.223 1.094.531 1.519.924s.754.839.988 1.36c.234.521.35 1.073.35 1.657v8.286l1.551.393v.393h-3.367c-1.551 0-2.326-.776-2.326-2.326v-6.735h-.011zm9.093 7.627c1.222 1.222 2.942 1.827 5.152 1.827.733 0 1.413-.117 2.029-.34.605-.223 1.115-.521 1.551-.892s.765-.797.999-1.285c.234-.478.35-.977.35-1.498h-.648c0 .414-.096.829-.297 1.232s-.467.765-.807 1.084c-.34.319-.733.574-1.19.765s-.945.287-1.466.287c-.446 0-.861-.096-1.243-.276s-.712-.478-.988-.903c-.276-.425-.489-.999-.648-1.71s-.234-1.604-.234-2.677c1.03 0 2.029-.043 2.974-.117.945-.085 1.785-.17 2.507-.276.85-.106 1.647-.234 2.411-.393.032-.117.074-.266.127-.436.033-.107.053-.227.076-.36v-.002l.011-.065.009-.05c.032-.181.043-.393.043-.637a4.762 4.762 0 0 0-1.657-3.655c-.531-.467-1.19-.839-1.955-1.115s-1.636-.414-2.603-.414c-.924 0-1.785.159-2.571.467s-1.455.765-2.008 1.36c-.552.605-.988 1.317-1.296 2.167s-.467 1.806-.467 2.879c0 2.146.616 3.814 1.838 5.035zm4.111-5.078c-.446.032-.967.043-1.551.043 0-1.328.064-2.411.17-3.24.127-.829.276-1.477.457-1.933s.382-.765.616-.935c.234-.159.467-.244.691-.244s.457.074.691.212c.223.138.436.372.616.701s.34.754.457 1.285c.117.531.181 1.179.181 1.955 0 .255-.021.499-.043.733s-.053.446-.085.637a9.256 9.256 0 0 0-.127.574 8.543 8.543 0 0 1-.935.127c-.22.023-.477.04-.768.06l-.179.012-.189.013zm19.323 6.257V20.364l-9.284-7.351V30.87h9.284zm11.484-10.506V30.87h-9.136V13.013l9.136 7.351z"/>
    </symbol>
    <symbol id="_nature" viewBox="0 0 103 32">
      <path d="m14.394 6.278.761-.162c.193 0 .355.041.467.122s.173.162.173.233c0 .071-.02.183-.051.315s-.315 1.492-.843 4.06a535.24 535.24 0 0 0-1.157 5.745c1.177-1.604 2.558-3.573 4.131-5.918s2.497-3.898 2.761-4.669c.081-.244.193-.426.325-.558s.254-.213.355-.233c.101-.02.264-.041.477-.041s.467.051.761.142.447.244.447.467c0 .406-.609 1.594-1.817 3.543s-2.599 4.02-4.162 6.212-2.863 3.928-3.908 5.207c-.183.223-.416.345-.68.345s-.548-.051-.843-.142c-.294-.091-.447-.254-.447-.497 0-.761.67-4.436 2.01-11.003-1.147 1.482-2.538 3.553-4.172 6.202-1.705 2.741-2.67 4.446-2.893 5.096-.122.396-.264.629-.426.69a.85.85 0 0 1-.355.071l-.822.091a.796.796 0 0 1-.447-.132c-.132-.091-.203-.183-.203-.284 0-.274.386-1.107 1.147-2.487s1.665-2.883 2.69-4.507c1.025-1.624 2.091-3.197 3.208-4.73s1.979-2.568 2.588-3.086a.605.605 0 0 1 .426-.162l.497.071zM26.595 13.161c.528 0 .792.183.792.538 0 .193-.041.335-.132.426s-.284.386-.579.903a20.726 20.726 0 0 0-.974 1.959c-.355.792-.589 1.472-.69 2.03-.02.071-.03.162-.03.294 0 .386.101.568.315.568s.457-.102.741-.294c.284-.203.538-.406.761-.639.223-.223.436-.457.65-.69s.335-.376.376-.406a.305.305 0 0 1 .183-.051c.132 0 .213.101.244.305s.041.406.041.629c0 .223-.02.365-.061.447-.203.396-.639.873-1.33 1.431-.68.558-1.309.832-1.868.832s-.974-.172-1.228-.508a1.856 1.856 0 0 1-.396-1.127c0-.416.071-.771.213-1.086a9.278 9.278 0 0 1-1.979 1.908c-.751.518-1.35.782-1.827.782s-.853-.142-1.157-.426c-.386-.355-.568-.843-.568-1.472s.142-1.259.426-1.898a6.938 6.938 0 0 1 1.106-1.736c.457-.528.964-1.005 1.512-1.431 1.147-.903 2.213-1.35 3.187-1.35.376 0 .68.061.914.183s.386.284.447.467c.162-.254.305-.406.426-.477.091-.081.264-.112.487-.112zm-1.38 1.157c-1.188 0-2.416.66-3.685 1.979-.447.477-.863 1.035-1.248 1.695s-.568 1.106-.568 1.35.071.365.213.365c.193 0 .731-.386 1.624-1.147s1.482-1.33 1.766-1.695c.325-.406.954-1.259 1.898-2.548z"/>
      <path d="m34.492 7.659.426.101c.061 0 .122.03.162.091.051.061.071.122.071.173s-.071.203-.223.447-.315.518-.518.822c-.203.304-.305.477-.315.508.538-.041.924-.061 1.147-.061s.376.02.467.051c.081.03.183.122.284.264.112.142.203.254.294.325s.132.183.132.325c0 .142-.091.274-.264.365a1.392 1.392 0 0 1-.568.183c-1.614.162-2.497.244-2.66.254-.558.863-1.35 2.203-2.355 4.02s-1.543 2.964-1.604 3.421c-.03.213-.041.376-.041.508 0 .274.142.406.426.406s.599-.112.944-.325c.345-.223.67-.457.954-.711.782-.69 1.198-1.046 1.249-1.046.183 0 .274.315.274.934 0 .335-.152.639-.467.914-.7.599-1.289 1.056-1.766 1.36s-.954.457-1.441.457c-.102 0-.203-.01-.294-.03-.558-.102-.964-.305-1.218-.609-.264-.305-.386-.711-.386-1.218s.152-1.137.457-1.868c.305-.731.68-1.512 1.137-2.335a81.076 81.076 0 0 1 2.243-3.786l-.396.051c-.802.091-1.269.132-1.401.132h-.091c-.203 0-.396-.041-.579-.122s-.284-.183-.284-.294c0-.122.051-.233.152-.345s.162-.203.183-.264c.051-.152.233-.325.548-.508s.548-.284.711-.294l.467-.03c.152-.01.315-.01.497-.02s.325-.01.426-.02l.934-.041c.579-.873.985-1.441 1.198-1.685.223-.254.345-.386.376-.406s.101-.041.213-.041l.497-.051z"/>
      <path d="M40.735 17.8c.132 0 .213.102.244.305s.041.406.041.629c0 .223-.02.365-.061.447-.203.386-.639.863-1.32 1.421s-1.33.843-1.939.843c-.376 0-.721-.112-1.046-.335-.315-.223-.477-.619-.477-1.177s.152-1.117.447-1.655c-1.726 2.162-3.066 3.238-4.05 3.238-.386 0-.7-.142-.944-.416s-.355-.558-.355-.863c0-.294.041-.599.122-.913s.173-.599.264-.853c.091-.254.233-.558.416-.924s.325-.629.406-.802c.081-.173.233-.416.436-.751s.457-.792.782-1.36c.325-.568.589-.995.802-1.269s.416-.416.619-.416.376.081.528.244c.152.162.233.305.233.406s-.233.568-.7 1.401c-1.37 2.487-2.061 3.928-2.061 4.344 0 .101.041.152.112.152.335 0 1.167-.721 2.487-2.162s2.091-2.365 2.304-2.771c.213-.406.406-.751.609-1.025.193-.274.345-.447.447-.508.294-.193.68-.294 1.157-.315.081 0 .132 0 .172.01s.091.071.142.172a.64.64 0 0 1 .081.264c-.061.193-.335.711-.832 1.553-.487.843-.761 1.32-.812 1.421-.822 1.695-1.228 2.802-1.228 3.309 0 .294.112.436.335.436.406-.051.893-.376 1.462-.964.213-.213.416-.436.619-.66s.335-.355.376-.386a.245.245 0 0 1 .183-.071z"/>
      <path d="M43.75 15.394c1.634-1.858 3.035-2.791 4.182-2.791.284 0 .518.081.7.254s.274.386.274.66-.193.721-.579 1.36a22.174 22.174 0 0 1-1.066 1.604c-.172.223-.365.335-.589.335-.213 0-.386-.081-.508-.244s-.183-.345-.183-.558c0-.477.254-1.025.771-1.624l-.02-.02c-.234.02-.792.477-1.705 1.35a67.574 67.574 0 0 0-2.314 2.365c-.629.7-1.32 1.543-2.071 2.548-.213.294-.396.447-.548.447s-.345-.051-.589-.142-.396-.162-.447-.203-.081-.112-.081-.213c0-.091.03-.213.081-.335.051-.132.162-.315.304-.548s.376-.619.68-1.147c.305-.528.772-1.33 1.411-2.396s1.015-1.716 1.147-1.939c.264-.457.477-.792.65-.995.315-.396.843-.589 1.584-.589.162 0 .254.101.254.315 0 .325-.305.944-.903 1.837l-.437.67zM54.946 13.283c0 .457-.183.863-.558 1.208s-.792.518-1.269.518c-.152 0-.254-.041-.304-.112s-.071-.173-.071-.284c0-.112.01-.233.041-.345-.254.081-.528.213-.832.386s-.68.426-1.127.771c-.447.345-.67.589-.67.761 0 .051.081.081.244.081s.416-.061.751-.172c.335-.112.579-.173.711-.173s.223.01.264.02c.091.051.183.152.294.315.101.162.152.294.152.386s-.091.213-.274.365a2.02 2.02 0 0 1-.609.345 3.282 3.282 0 0 0-.457.183c-1.462.822-2.193 1.381-2.193 1.685 0 .538.457.812 1.381.812.589 0 1.188-.183 1.776-.558.508-.315.964-.64 1.37-.974.406-.325.66-.528.772-.609s.193-.112.244-.112c.183 0 .274.203.274.609s-.02.67-.071.792c-.051.132-.183.284-.416.477-1.482 1.208-2.893 1.817-4.213 1.817-.711 0-1.269-.102-1.695-.294-.782-.355-1.167-.893-1.167-1.624 0-.954.66-1.685 1.99-2.172-.264-.122-.436-.264-.508-.457-.081-.183-.112-.477-.112-.883s.193-.832.568-1.289a4.42 4.42 0 0 1 1.391-1.117c1.218-.66 2.314-.985 3.269-.985.233 0 .457.051.7.162s.355.264.355.467zM78.638 6.218h.132c.041 0 .071 0 .082.01s.02.01.041.02c.02 0 .031.01.05.03.031.03.081.061.142.091.081.061.122.132.122.213s-.081.254-.243.518c-.163.264-.579.903-1.259 1.939a223.888 223.888 0 0 0-4.172 6.618c-2.122 3.532-3.198 5.309-3.218 5.329s-.031.041-.041.061c-.01.041-.03.061-.081.061l-.142-.03-.284.071-.162-.03-.172.03h-.061l-.579.081c-.345 0-.518-.122-.518-.355 0-.101.03-.223.091-.365.213-.508 1.299-2.345 3.248-5.532-1.279.03-2.548.051-3.796.051l-2.233-.01a126.86 126.86 0 0 0-1.512 2.507c-1.38 2.365-2.111 3.553-2.203 3.573s-.162.041-.223.041-.112-.03-.152-.101c-.051-.061-.081-.102-.102-.102s-.051.01-.112.041a.508.508 0 0 1-.244.041l-.244-.01-.091-.061c-.01 0-.02.01-.031.03s-.041.03-.081.03c-.294 0-.447-.122-.447-.376 0-.162.061-.386.172-.66.122-.274.274-.568.467-.883s.68-1.076 1.482-2.264a105.997 105.997 0 0 0 1.188-1.797c-.132-.01-.284-.01-.457-.02-.355 0-.599-.01-.751-.041-.396-.071-.67-.396-.812-.974-.081-.284-.112-.467-.101-.558 0-.183.081-.284.244-.284l.274.071c.142.01.467.02.995.051s.903.041 1.137.041l.589-.02a130.24 130.24 0 0 1 3.238-4.801c-.914.751-1.929 1.127-3.045 1.127-.528 0-.985-.122-1.36-.376-.386-.254-.568-.579-.568-.964s.142-.69.436-.924c.294-.223.568-.335.832-.335s.396.041.396.122c0 .03-.041.061-.112.091-.071.041-.112.071-.112.102 0 .112.122.213.365.294s.518.132.822.132c.305 0 .67-.091 1.117-.264s.903-.406 1.38-.68a33.15 33.15 0 0 0 1.584-.964c.223-.112.426-.162.629-.162s.335.02.426.071c.091.041.152.091.193.132s.091.101.132.173c.051.071.091.132.142.162.041.041.071.081.071.132s-.03.122-.081.233c-.051.101-.315.528-.792 1.269s-1.096 1.685-1.847 2.832a195.317 195.317 0 0 0-1.644 2.538c1.858 0 3.857-.03 6.009-.102 2.619-4.131 4-6.293 4.141-6.496s.275-.335.396-.396.264-.091.437-.091l.883.071zM82.029 13.14c.213 0 .426.091.639.284.223.193.325.477.325.863s-.132.883-.406 1.502c-.275.609-.64 1.238-1.117 1.878a16.113 16.113 0 0 1-1.553 1.787 8.252 8.252 0 0 1-1.827 1.37c-.66.355-1.249.538-1.786.538s-.964-.173-1.289-.508c-.325-.335-.487-.802-.487-1.401s.152-1.269.447-1.99c.294-.731.67-1.37 1.137-1.929s.964-1.056 1.512-1.502c1.127-.914 2.122-1.36 2.975-1.36.385 0 .67.091.863.284.071.061.102.122.102.162v.061c.112-.041.264-.041.467-.041zm-1.046 1.381h-.071c-.243 0-.365-.172-.365-.528-.507.162-1.035.457-1.594.873s-1.055.914-1.492 1.482c-.893 1.137-1.34 2.101-1.35 2.883 0 .386.141.579.426.579s.71-.193 1.269-.558c.558-.365 1.117-.903 1.675-1.604.548-.69.964-1.299 1.238-1.807s.416-.853.416-1.046c-.01-.183-.06-.274-.152-.274zM82.77 21.129l-.508-.02h-.183c-.071-.02-.142-.061-.223-.122s-.142-.112-.183-.132c-.041-.02-.061-.081-.061-.152s.031-.203.082-.376c1.35-2.974 2.659-5.36 3.928-7.136.142-.193.365-.345.67-.447s.609-.152.903-.152c.173 0 .264.132.264.406a.85.85 0 0 1-.081.305c-.05.132-.193.335-.416.629s-.487.629-.791.995c-.305.365-.477.589-.518.65.954-.985 1.806-1.715 2.578-2.203.772-.477 1.32-.721 1.665-.721s.609.101.792.294c.183.193.274.406.274.629s-.02.416-.05.558c-.031.152-.092.305-.173.467s-.152.304-.213.416c-.06.112-.162.264-.294.447-.141.183-.233.315-.284.386s-.163.203-.325.396a5.451 5.451 0 0 0-.264.325c.193-.193.466-.477.812-.863s.639-.7.883-.954c.243-.254.538-.548.903-.873s.7-.589 1.005-.782c.752-.467 1.513-.711 2.284-.711.264 0 .487.081.67.254s.275.365.275.599c0 .233-.284.792-.843 1.665s-1.127 1.756-1.685 2.639c-.558.883-.843 1.441-.843 1.675 0 .315.061.508.173.568.122.061.264.081.427.071s.406-.122.7-.325c.304-.203.568-.406.801-.629.386-.345.731-.68 1.066-1.005a.337.337 0 0 1 .233-.091c.132 0 .213.102.244.305s.041.406.041.629c0 .223-.02.365-.061.447-.203.386-.649.863-1.33 1.431-.69.558-1.35.843-1.979.843-.081 0-.132 0-.162-.01-.711-.071-1.208-.264-1.483-.589s-.406-.711-.406-1.147.153-.985.457-1.614c.304-.629.629-1.208.995-1.715s.69-.974.995-1.391c.304-.416.457-.639.457-.67s-.031-.051-.081-.051c-.213 0-.691.345-1.441 1.046a40.557 40.557 0 0 0-3.289 3.431 81.485 81.485 0 0 0-1.726 2.213c-.102.142-.274.213-.497.213s-.457-.041-.7-.132c-.244-.091-.365-.203-.365-.335 0-.071.548-1.046 1.655-2.923s1.654-2.903 1.654-3.066c0-.173-.101-.254-.304-.254s-.629.305-1.269.914c-1.756 1.675-3.116 3.35-4.08 5.004-.061.101-.183.254-.365.457s-.346.284-.406.284z"/>
      <path d="M102.898 13.283c0 .457-.183.863-.558 1.208s-.792.518-1.269.518c-.153 0-.254-.041-.305-.112s-.071-.173-.071-.284.011-.233.041-.345c-.253.081-.528.213-.832.386s-.68.426-1.126.771c-.447.345-.671.589-.671.761 0 .051.082.081.244.081s.416-.061.751-.172c.335-.112.579-.173.711-.173s.223.01.264.02c.091.051.183.152.294.315.101.162.152.294.152.386s-.092.213-.275.365a2.007 2.007 0 0 1-.609.345 3.282 3.282 0 0 0-.457.183c-1.461.822-2.192 1.381-2.192 1.685 0 .538.457.812 1.381.812.588 0 1.188-.183 1.776-.558.507-.315.964-.64 1.37-.974.406-.325.659-.528.772-.609s.193-.112.243-.112c.183 0 .275.203.275.609s-.021.67-.071.792c-.051.132-.183.284-.417.477-1.482 1.208-2.893 1.817-4.213 1.817-.71 0-1.269-.102-1.695-.294-.782-.355-1.168-.893-1.168-1.624 0-.954.66-1.685 1.99-2.172-.264-.122-.437-.264-.508-.457-.081-.183-.112-.477-.112-.883s.193-.832.568-1.289a4.432 4.432 0 0 1 1.391-1.117c1.218-.66 2.315-.985 3.268-.985.234 0 .457.051.7.162s.356.264.356.467zM0 23.941a52.72 52.72 0 0 0 8.161 2.639 61.789 61.789 0 0 0 8.354 1.482c1.401.193 2.812.213 4.202.345 1.411.01 2.812.122 4.213.041l2.101-.051c.7-.01 1.401-.102 2.101-.142.7-.061 1.401-.091 2.091-.183l2.081-.294c2.791-.305 5.502-.954 8.202-1.736 2.731-.751 5.309-1.746 8.039-2.781 2.791-1.025 5.816-1.695 8.882-1.37 1.512.193 3.035.68 4.273 1.573 1.249.883 2.142 2.142 2.71 3.461-.853-1.177-1.919-2.142-3.147-2.741s-2.578-.843-3.918-.802c-2.71.041-5.38.944-7.887 2.081a67.25 67.25 0 0 1-8.09 3.34c-2.802.903-5.695 1.624-8.628 1.99-5.837.771-11.815.782-17.581-.386-2.893-.528-5.715-1.35-8.445-2.396-2.71-1.086-5.36-2.355-7.715-4.07zM97.072 7.04a46.697 46.697 0 0 0-6.902-2.304 54.215 54.215 0 0 0-7.045-1.36c-1.178-.183-2.375-.223-3.553-.365-1.188-.03-2.365-.152-3.553-.102-.589.01-1.188.01-1.776 0-.589 0-1.188.061-1.776.081-.589.041-1.188.051-1.776.112l-1.766.213c-2.365.193-4.659.68-6.953 1.279-2.324.558-4.527 1.35-6.872 2.142-2.406.802-5.015 1.289-7.633.924-1.289-.213-2.588-.67-3.614-1.482-1.046-.802-1.756-1.898-2.193-3.045.721 1.005 1.614 1.827 2.639 2.335s2.152.721 3.279.711c2.274 0 4.527-.731 6.659-1.644 2.172-1.035 4.558-1.949 6.933-2.7 2.396-.721 4.893-1.269 7.39-1.533 4.984-.528 10.08-.406 14.962.751 2.446.518 4.832 1.309 7.115 2.284 2.294.995 4.507 2.152 6.436 3.705z"/>
    </symbol>
    <symbol id="_vs" viewBox="0 0 32 32">
      <path d="M16.051.137c8.775 0 15.914 7.14 15.914 15.914s-7.139 15.914-15.914 15.914C7.276 31.965.137 24.826.137 16.051S7.277.137 16.051.137zm2.586 1.425c-.078 0-.174-.005-.283-.014a5.567 5.567 0 0 1-.42-.055l-.009.073c.11.014.192.037.242.078s.073.101.064.178a.924.924 0 0 1-.105.297l-.754 1.517-.507-1.855a.478.478 0 0 1-.027-.178c.005-.046.027-.082.069-.096s.11-.018.206-.014l.009-.073c-.104 0-.262-.013-.473-.031l-.007-.001-.055-.006a5.315 5.315 0 0 1-.342-.044l-.009.073c.11.014.187.101.233.26l.69 2.426.027.005.032.005 1.087-2.174c.087-.183.196-.279.324-.297l.009-.073zm2.786.95a.49.49 0 0 1 .192.037l.027-.069a5.552 5.552 0 0 1-.448-.155 15.297 15.297 0 0 1-.443-.178l-.027.069c.082.037.142.069.174.096s.046.064.046.11-.018.114-.05.201l-.653 1.736c-.032.087-.064.146-.091.183s-.069.055-.11.055a.74.74 0 0 1-.192-.041l-.027.069c.1.032.251.082.452.16.187.073.333.132.439.178l.027-.069c-.082-.037-.142-.069-.174-.096s-.046-.064-.046-.11a.66.66 0 0 1 .05-.201l.653-1.736c.032-.087.064-.146.091-.183s.064-.055.11-.055zm3.933 2.448a.178.178 0 0 1 .132-.032.56.56 0 0 1 .183.082l.046-.059a3.509 3.509 0 0 1-.288-.196 6.368 6.368 0 0 1-.302-.238l-.046.059c.078.059.132.114.155.16s.027.091.014.142a.74.74 0 0 1-.11.192l-.95 1.288.146-2.421a2.313 2.313 0 0 1-.242-.164 2.76 2.76 0 0 1-.274-.215l-.046.059c.073.059.119.105.142.142s.027.078.014.119a.834.834 0 0 1-.105.178l-1.078 1.462a.744.744 0 0 1-.146.16.178.178 0 0 1-.132.032.427.427 0 0 1-.178-.082l-.046.059c.073.041.169.11.288.196.132.101.233.178.301.238l.046-.059c-.078-.064-.132-.114-.155-.16s-.032-.091-.014-.142.055-.114.11-.192l1.174-1.59-.178 2.887.069.05 1.325-1.795a.657.657 0 0 1 .146-.16zm1.663 2.029a2.147 2.147 0 0 1-.256.169l.05.069c.169-.096.301-.155.393-.187s.178-.027.256.009c.078.037.16.114.251.242l.119.164-1.731 1.233c-.082.059-.151.096-.201.11s-.096.005-.142-.027a.895.895 0 0 1-.169-.178l-.059.046c.073.091.183.238.329.443.137.187.242.343.311.452l.059-.046a.915.915 0 0 1-.114-.215c-.018-.055-.009-.105.018-.146s.087-.096.169-.155l1.731-1.233.119.164c.087.128.142.233.146.32s-.018.169-.078.247c-.059.078-.16.183-.306.311l.05.069a4.48 4.48 0 0 1 .242-.187c.119-.082.251-.164.407-.256a56.055 56.055 0 0 1-1.22-1.718 4.373 4.373 0 0 1-.375.301zm.803 6.363.073-.023c-.027-.11.018-.215.137-.329l1.937-1.612-.018-.055-2.43-.11c-.201-.005-.338-.064-.402-.174l-.073.023c.032.069.064.155.1.26v.001c.046.137.091.274.128.41l.073-.023a.517.517 0 0 1-.027-.251c.018-.059.064-.1.137-.128s.178-.037.315-.027l.425.018.288.854-.507.416a.508.508 0 0 1-.151.096.104.104 0 0 1-.119-.023.655.655 0 0 1-.096-.183l-.073.023c.041.1.096.251.164.452.055.155.091.283.119.384zm.462-2.015.27.804.927-.754-1.197-.05zm-.055 5.486c-.021.009-.044.015-.066.022a.493.493 0 0 0-.071.024v.073l.74-.014c.096-.005.164 0 .206.009s.073.027.087.05.027.064.032.123h.073a8.281 8.281 0 0 1-.013-.918h-.073c0 .11-.009.192-.027.242a.158.158 0 0 1-.096.11.679.679 0 0 1-.228.032l-.361.005a.298.298 0 0 1-.119-.018.229.229 0 0 1-.091-.087.683.683 0 0 1-.123-.388c-.005-.206.037-.375.128-.507s.228-.233.42-.301a2.31 2.31 0 0 1 .735-.11c.265-.005.493.027.694.091.196.069.352.16.461.283s.164.265.169.429c0 .128-.023.247-.073.365s-.123.215-.21.288c-.064.05-.137.091-.224.119s-.196.055-.329.078v.087c.411-.009.699-.009.859 0v-.087c-.151-.014-.228-.046-.228-.091 0-.018.014-.046.037-.078.055-.073.096-.142.128-.201s.059-.128.078-.206.027-.169.027-.27c0-.228-.064-.434-.183-.617s-.288-.32-.502-.42a1.7 1.7 0 0 0-.754-.142 1.624 1.624 0 0 0-.713.155c-.201.1-.347.242-.452.429-.1.187-.151.407-.146.662 0 .114.018.219.055.311s.087.183.155.27l.055.078a.078.078 0 0 1 .014.046c0 .032-.023.055-.069.073zm-1.009 3.769c.178.037.333.078.466.119l.02.006c.1.033.18.06.232.099l.027-.082a1.911 1.911 0 0 1-.356-.201.356.356 0 0 1-.137-.228c-.018-.087 0-.206.046-.356l.082-.26a.64.64 0 0 1 .082-.183c.023-.037.059-.055.105-.055s.11.014.201.041l.859.269-.073.238c-.032.096-.078.164-.146.201s-.155.046-.256.027c-.066-.015-.114-.024-.144-.03l-.019-.004a.197.197 0 0 1-.015-.003l-.027.082c.219.05.393.1.512.137l.169.05c.11.032.219.073.333.119l.027-.082c-.018-.009-.064-.032-.137-.064s-.137-.078-.196-.142c-.059-.064-.069-.155-.032-.274l.073-.238.84.265c.091.027.151.055.187.082s.05.064.055.105a.522.522 0 0 1-.037.192l-.091.297a.64.64 0 0 1-.142.265c-.055.055-.123.082-.206.082s-.206-.014-.365-.046l-.027.082c.055.009.132.032.224.059.128.037.265.091.416.155.037-.151.114-.402.224-.749l.002-.006.001-.003.001-.003.001-.002c.144-.449.252-.787.333-1.018l-.073-.023c-.032.082-.059.142-.087.178s-.064.055-.11.055-.11-.014-.201-.041l-1.768-.557c-.087-.027-.151-.055-.187-.082s-.055-.059-.059-.105a.79.79 0 0 1 .032-.196l-.073-.023c-.064.233-.169.58-.315 1.037-.123.384-.21.653-.27.813zm-.836 5.723a.81.81 0 0 1-.11.164l.055.05c.073-.087.178-.206.32-.352.146-.155.26-.27.338-.338l-.055-.05c-.064.064-.114.105-.155.123s-.082.018-.123 0a.662.662 0 0 1-.164-.123l-1.343-1.284c-.069-.069-.114-.119-.132-.16s-.023-.082-.005-.123a.84.84 0 0 1 .114-.16l-.055-.05c-.069.078-.178.196-.324.352l-.04.04-.03.03-.036.036c-.092.093-.168.17-.232.227l.055.05c.064-.064.114-.105.155-.123s.082-.018.123 0a.662.662 0 0 1 .164.123l1.343 1.284c.069.069.114.119.132.16s.023.082.005.123zm-3.783 2.654a.165.165 0 0 1-.023.132.71.71 0 0 1-.146.132l.037.064c.069-.05.164-.11.292-.187l.009-.006h.001c.137-.079.243-.141.323-.177l-.037-.064c-.087.046-.155.073-.21.078s-.101-.009-.137-.041a.66.66 0 0 1-.132-.174l-.813-1.38 2.17 1.083c.069-.046.151-.101.247-.155.132-.078.233-.132.306-.169l-.037-.064a.786.786 0 0 1-.183.073c-.046.009-.082-.005-.119-.032s-.078-.082-.123-.164l-.923-1.567c-.05-.087-.082-.151-.091-.201s-.005-.091.023-.132a.419.419 0 0 1 .146-.132l-.037-.064a4.33 4.33 0 0 1-.292.187l-.012.007c-.136.079-.242.14-.322.176l.041.064c.087-.046.155-.073.206-.078s.096.009.137.041a.66.66 0 0 1 .132.174l1 1.699-2.585-1.293-.073.046 1.133 1.923c.05.087.082.151.091.201zm-2.535.731c-.025-.111-.042-.204-.055-.275l-.004-.022-.082.018c.023.192.027.338.018.434s-.046.174-.11.233c-.064.059-.174.105-.324.137l-.196.041-.448-2.078c-.023-.101-.027-.178-.018-.228s.037-.091.082-.119a.891.891 0 0 1 .228-.082l-.014-.073c-.11.031-.283.07-.511.122l-.028.006c-.228.05-.411.087-.539.105l.014.073c.11-.018.192-.027.247-.018.055.005.091.032.123.073s.055.114.078.215l.448 2.078-.196.041c-.151.032-.27.037-.352.009s-.146-.082-.196-.169a2.129 2.129 0 0 1-.164-.407l-.082.018c.027.073.05.174.078.297.032.142.055.297.078.475a38.11 38.11 0 0 1 1.309-.293c.336-.07.584-.122.746-.151a4.76 4.76 0 0 1-.128-.461zm-6.043-1.763c0 .178-.005.338-.018.48-.014.11-.023.201-.023.27l.087.009c.037-.174.073-.306.119-.393s.11-.151.192-.183a.769.769 0 0 1 .361-.032l.274.023c.087.009.151.023.192.041s.069.05.078.091a.724.724 0 0 1 .005.206l-.078.895-.247-.023c-.1-.009-.178-.041-.228-.1-.055-.055-.078-.137-.082-.242 0-.073-.002-.124-.004-.154v-.002l-.001-.026-.087-.009c-.009.228-.018.402-.027.53l-.014.178v.001c-.014.114-.027.228-.046.35l.087.009.003-.014a2.99 2.99 0 0 1 .029-.136.636.636 0 0 1 .096-.224c.05-.073.137-.1.26-.091l.247.023-.078.877c-.009.091-.023.16-.041.201s-.05.069-.091.078a.645.645 0 0 1-.196.005l-.311-.027a.607.607 0 0 1-.288-.078.274.274 0 0 1-.123-.183 1.673 1.673 0 0 1-.037-.365l-.087-.009a3.498 3.498 0 0 1-.073.672 44.01 44.01 0 0 1 1.859.164l.005-.073c-.087-.009-.151-.027-.192-.046s-.069-.05-.078-.096a.724.724 0 0 1-.005-.206l.164-1.85c.009-.091.023-.16.041-.201s.05-.064.091-.078.105-.018.196-.014l.005-.073c-.225-.012-.545-.04-.961-.076l-.122-.011a24.307 24.307 0 0 1-.854-.087zm-3.613-1.215a.726.726 0 0 0-.228.101l.037.059c.059-.032.105-.055.137-.064s.069-.009.105.009c.032.009.055.032.069.059s.018.064.018.11-.009.105-.023.183l-.064.388a.811.811 0 0 0-.009.274.412.412 0 0 0 .087.201.75.75 0 0 0 .215.183l.041.023c-.169-.041-.324-.046-.452-.018a.687.687 0 0 0-.493.402c-.05.114-.064.228-.037.347s.087.228.192.333.247.192.425.27l.087.036.137.056.099.042c.07.029.135.057.198.082.183.078.32.142.416.187l.027-.069c-.082-.041-.137-.073-.169-.105s-.05-.069-.046-.114a.75.75 0 0 1 .059-.196l.717-1.713a.622.622 0 0 1 .1-.178c.027-.037.064-.05.11-.05a.872.872 0 0 1 .192.05l.027-.069a5.854 5.854 0 0 1-.448-.174 9.736 9.736 0 0 1-.434-.192l-.027.069c.082.037.137.069.169.101s.05.069.046.114a.75.75 0 0 1-.059.196l-.333.795-.329-.137c-.087-.037-.146-.082-.178-.142s-.05-.128-.046-.201c.005-.078.018-.178.041-.311l.069-.375c.023-.151.018-.265-.018-.347a.36.36 0 0 0-.196-.178c-.082-.037-.16-.05-.228-.037zm.228 1.626a.786.786 0 0 1 .393.078l.233.096-.356.85c-.032.082-.064.142-.096.178s-.069.055-.11.055a.358.358 0 0 1-.174-.041c-.206-.087-.329-.196-.379-.329s-.032-.297.046-.484c.05-.119.11-.21.178-.279s.155-.11.265-.123zm-3.672-1.023c-.037.023-.078.032-.119.018s-.096-.046-.174-.096l-.046.059c.091.064.219.16.379.283.169.137.292.238.37.306l.046-.059c-.069-.059-.114-.11-.137-.146s-.027-.078-.014-.119c.014-.041.05-.1.11-.174l1.147-1.462a.722.722 0 0 1 .146-.146.125.125 0 0 1 .119-.018c.041.009.1.041.174.096l.046-.059a7.455 7.455 0 0 1-.384-.288 6.318 6.318 0 0 1-.365-.301l-.046.059c.069.059.114.11.137.146s.027.078.014.119a.645.645 0 0 1-.11.174l-1.147 1.462a.722.722 0 0 1-.146.146zm-3.07-3.234c.018.206.096.407.238.603.132.183.301.315.502.393s.42.091.649.05c.233-.041.457-.146.681-.306.228-.169.393-.347.502-.548.105-.196.151-.402.132-.608s-.096-.407-.238-.598c-.132-.187-.301-.32-.502-.397s-.416-.091-.649-.05a1.674 1.674 0 0 0-.681.306 1.699 1.699 0 0 0-.502.548 1.07 1.07 0 0 0-.132.608zm.685.813a.615.615 0 0 1-.388-.242.64.64 0 0 1-.114-.434c.014-.169.078-.338.196-.512.114-.178.279-.343.489-.493s.411-.256.612-.32a1.09 1.09 0 0 1 .544-.046.607.607 0 0 1 .384.242.64.64 0 0 1 .114.434 1.016 1.016 0 0 1-.192.512 1.904 1.904 0 0 1-.489.489c-.21.155-.411.26-.612.324s-.384.078-.544.046zm-.21-6.112a.383.383 0 0 0-.123-.201.755.755 0 0 0-.219-.11l-.023.069c.064.023.11.046.137.064s.046.046.059.087c.009.032.009.064-.005.091s-.041.055-.073.082a.993.993 0 0 1-.155.101l-.338.201a.904.904 0 0 0-.219.169c-.046.055-.078.119-.096.196s-.014.169 0 .283l.005.046c-.078-.16-.169-.279-.279-.361a.683.683 0 0 0-.625-.119c-.119.037-.215.1-.288.196s-.119.215-.132.361a1.257 1.257 0 0 0 .073.525l.011.033.001.002.001.002.001.002.055.162.028.082a9.298 9.298 0 0 1 .196.663l.073-.023a.615.615 0 0 1-.032-.196c.005-.041.023-.078.059-.105s.096-.055.187-.082l1.772-.548c.087-.032.155-.041.201-.041s.082.023.11.055a.644.644 0 0 1 .087.178l.073-.023a8.217 8.217 0 0 1-.151-.452 5.782 5.782 0 0 1-.132-.457l-.073.023c.023.087.037.155.032.196s-.023.078-.059.105a.624.624 0 0 1-.187.082l-.822.256-.105-.343c-.027-.091-.027-.164-.005-.228s.064-.119.123-.164c.059-.046.146-.1.26-.169l.333-.187c.132-.078.219-.155.256-.238a.35.35 0 0 0 .009-.265zm-1.48.9a.808.808 0 0 0-.329.046c-.196.059-.329.155-.402.279s-.073.292-.009.498c.023.073.05.128.078.16s.069.05.114.05a.817.817 0 0 0 .196-.037l.877-.274-.073-.242c-.046-.164-.11-.283-.187-.356s-.169-.114-.265-.123zm1.005-5.436c-.174.078-.384.1-.639.078l-.014.082c.452.082.745.142.877.178l.014-.082c-.055-.014-.096-.032-.119-.05s-.032-.037-.027-.059a.349.349 0 0 1 .078-.114.861.861 0 0 0 .233-.479c.027-.146.027-.283-.005-.411s-.091-.233-.183-.324a.706.706 0 0 0-.365-.174c-.123-.023-.237-.018-.343.018s-.201.091-.288.169a5.292 5.292 0 0 0-.32.32c-.02.02-.048.052-.088.096l-.086.096c-.087.096-.178.178-.274.242s-.21.082-.343.059a.463.463 0 0 1-.21-.101c-.055-.05-.096-.11-.119-.187s-.027-.155-.009-.242a.525.525 0 0 1 .16-.306.594.594 0 0 1 .297-.151c.119-.027.238-.032.365-.018l.014-.082a12.707 12.707 0 0 1-.749-.16l-.014.082c.055.018.096.032.119.05s.032.037.027.059a.349.349 0 0 1-.078.114c-.026.026-.047.052-.067.076l-.01.013-.014.016c-.027.032-.05.073-.073.128s-.041.114-.055.192c-.023.128-.023.247.005.361s.087.21.169.292a.64.64 0 0 0 .333.16c.132.023.251.018.356-.023s.201-.096.288-.174a3.15 3.15 0 0 0 .301-.306c.1-.114.192-.206.269-.274s.16-.119.242-.151a.471.471 0 0 1 .265-.023.45.45 0 0 1 .393.325c.023.078.023.16.009.242-.046.219-.151.365-.324.443zm-1.343-4.047a4.197 4.197 0 0 1 .699.342l.041-.078c-.164-.105-.279-.196-.347-.265s-.105-.146-.11-.233c-.005-.087.027-.196.1-.333l.096-.178 1.887.987c.091.05.151.091.187.132s.05.087.041.142a.915.915 0 0 1-.082.228l.069.037c.05-.105.132-.274.247-.493.11-.21.196-.37.265-.484l-.069-.037c-.055.096-.101.164-.142.201s-.087.05-.137.046a.589.589 0 0 1-.215-.078l-1.887-.982.091-.183c.069-.137.142-.228.215-.274s.16-.064.256-.046c.096.014.233.059.416.132l.041-.078-.015-.007c-.071-.031-.161-.07-.263-.126a5.652 5.652 0 0 1-.411-.242c-.087.187-.247.498-.475.936-.228.443-.397.754-.498.932zm3.664-5.052-.104.1c-.069.067-.138.134-.21.2l.055.055c.082-.078.151-.123.21-.142s.114-.005.164.046c.055.05.105.151.155.297l.338 1.01-1.284-.397a.294.294 0 0 1-.119-.064c-.069-.069-.041-.164.082-.288l-.055-.055c-.056.067-.147.16-.27.286l-.091.093c-.082.087-.164.16-.238.224l.055.055c.023-.023.055-.037.1-.041s.114.005.206.032l1.526.448.402.397c.064.064.11.119.128.16.023.041.023.082.005.123s-.059.091-.119.16l.055.055a9.117 9.117 0 0 1 .672-.676l-.055-.055c-.069.059-.119.1-.16.119s-.082.018-.123 0a.737.737 0 0 1-.16-.128l-.484-.48-.416-1.238c-.037-.114-.055-.21-.059-.279s.009-.128.037-.169l-.055-.055c-.046.055-.11.128-.187.206zm2.731-1.722a.139.139 0 0 1 .032-.119.797.797 0 0 1 .16-.119l-.037-.064a8.835 8.835 0 0 1-.411.233 4.864 4.864 0 0 1-.425.219l.032.068a.616.616 0 0 1 .187-.069.133.133 0 0 1 .114.037.65.65 0 0 1 .119.169l.891 1.635c.046.082.069.146.078.192s-.005.087-.032.119-.082.073-.16.119l.037.064c.206-.121.519-.291.928-.513l.022-.012c.352-.192.608-.324.758-.397a5.676 5.676 0 0 1-.251-.411 4.066 4.066 0 0 1-.137-.274l-.078.041c.073.174.114.306.128.411s-.005.192-.055.269a.75.75 0 0 1-.283.228l-.242.132c-.078.041-.142.069-.183.073s-.082-.005-.114-.037a.65.65 0 0 1-.119-.169l-.882-1.635a.675.675 0 0 1-.078-.192zm5.596.173c-.014-.066-.024-.124-.033-.174l-.017-.091-.082.018c.014.178.014.315-.005.411s-.059.174-.132.228a.88.88 0 0 1-.338.128l-.27.055a.671.671 0 0 1-.196.018.141.141 0 0 1-.1-.069.71.71 0 0 1-.059-.196l-.174-.882.242-.046c.101-.018.178-.009.247.032s.114.11.146.21l.01.031.017.054.028.089.082-.018a6.691 6.691 0 0 1-.123-.516l-.037-.174a3.766 3.766 0 0 1-.055-.347l-.082.018.004.069.005.082c.005.078-.005.155-.032.238s-.101.137-.224.16l-.242.05-.169-.868a.732.732 0 0 1-.018-.206c.009-.046.032-.078.069-.101s.101-.041.187-.059l.306-.059a.625.625 0 0 1 .301-.005c.069.023.128.069.169.142s.087.187.137.343l.082-.018a1.785 1.785 0 0 1-.055-.224 4.394 4.394 0 0 1-.059-.439c-.122.031-.321.071-.595.126l-.168.034c-.466.091-.822.155-1.064.196l.014.073a.6.6 0 0 1 .196-.009c.046.005.073.027.1.069s.046.105.064.196L12.977 4c.018.091.023.16.018.206a.133.133 0 0 1-.064.1.615.615 0 0 1-.187.069l.014.073c.242-.055.594-.128 1.064-.219.393-.078.671-.128.84-.155a6.316 6.316 0 0 1-.119-.466zm-3.632 16.509c.16.343.343.653.553.936.356.452.735.667 1.16.63.407-.032.822-.311 1.238-.836a19.815 19.815 0 0 0 1.462-2.083c.443-.726.863-1.475 1.247-2.247s.745-1.558 1.083-2.352c.338-.799.662-1.599.982-2.407.192-.516.324-1.046.384-1.599s.132-1.11.219-1.672v-.265c0-.114-.014-.224-.037-.329s-.069-.174-.137-.21c-.064-.037-.16 0-.283.11-.297.343-.53.749-.708 1.229-.178.475-.361.927-.544 1.357-.365.845-.74 1.704-1.119 2.572a58.159 58.159 0 0 1-1.201 2.581c-.42.854-.868 1.69-1.348 2.517s-1.005 1.626-1.58 2.398c-.123-.279-.196-.662-.219-1.147s-.014-1.028.027-1.626c.041-.598.11-1.229.201-1.882a29.092 29.092 0 0 1 .704-3.526c.132-.493.265-.891.402-1.183.087-.196.05-.388-.11-.571s-.361-.329-.608-.439c-.247-.11-.489-.164-.735-.164s-.407.078-.48.238c-.438 1.434-.758 2.887-.955 4.362s-.192 2.996.018 4.563c.096.356.224.703.384 1.046zm8.117-1.138c-.356.292-.694.603-1.023.923a5.701 5.701 0 0 0-.891 1.183c-.11.187-.201.388-.274.608-.096.356-.128.713-.091 1.073s.192.694.475 1c.11.132.242.224.402.265s.324.064.498.064c.306 0 .589-.059.845-.183.256-.119.498-.283.717-.493.224-.21.42-.443.598-.699s.352-.525.525-.808c.119-.292.219-.553.292-.781s.119-.452.137-.671c.018-.224-.005-.452-.064-.69s-.164-.525-.311-.854c.037-.023.087-.05.155-.073s.114-.05.137-.073c.233-.146.507-.297.827-.448.32-.155.58-.292.79-.416l.041-.023c.029-.016.07-.038.123-.069.082-.05.169-.105.247-.164s.142-.123.192-.183c.05-.059.055-.11.018-.146-.037-.059-.096-.091-.183-.091-.137 0-.329.032-.58.101s-.516.151-.79.247-.539.196-.79.292-.439.178-.562.238c-.096.037-.16.05-.183.046s-.073-.046-.146-.119a6.645 6.645 0 0 1-.186-.199l-.043-.047c-.091-.1-.183-.21-.274-.319a17.862 17.862 0 0 0-.272-.317l-.002-.002c-.091-.1-.16-.192-.21-.265a.995.995 0 0 1-.119-.626 1.35 1.35 0 0 1 .557-.928c.132-.092.251-.123.347-.1.014.046.041.132.091.256s.078.206.091.256c.059.247.155.512.283.808s.329.493.598.589c.146.059.238.05.274-.037a.526.526 0 0 0 .018-.311 13.905 13.905 0 0 0-.11-.375c-.037-.114-.073-.247-.11-.402s-.064-.338-.082-.553-.027-.493-.027-.836c0-.087-.037-.151-.11-.201s-.142-.087-.201-.11c-.059-.023-.132-.046-.21-.064s-.155-.046-.228-.082c-.174-.073-.338-.078-.489-.018s-.301.142-.448.238a3.782 3.782 0 0 0-.946 1.019 2.457 2.457 0 0 0-.411 1.352c0 .429.119.818.356 1.174s.48.703.726 1.046zm.626.827c-.137.137-.32.329-.553.58s-.448.525-.653.818c-.201.292-.365.585-.493.872s-.16.534-.1.745c.247-.11.498-.292.754-.544s.484-.525.681-.827c.196-.301.333-.598.411-.891.078-.297.064-.548-.046-.754zM5.687 16.051c0 5.714 4.65 10.364 10.364 10.364s10.364-4.65 10.364-10.364-4.65-10.364-10.364-10.364-10.364 4.65-10.364 10.364zm.457 0c0-5.463 4.445-9.908 9.908-9.908s9.908 4.444 9.908 9.908c0 5.463-4.444 9.908-9.908 9.908s-9.908-4.444-9.908-9.908z"/>
    </symbol>
  </defs>
</svg>