<svg aria-hidden="true" style="position:absolute;width:0;height:0;overflow:hidden" xmlns="http://www.w3.org/2000/svg">
  <defs>
    <symbol id="_interno" viewBox="0 0 151 32">
      <path d="M1.006 30.857V30.4l.914-.366c.61-.213 1.006-.503 1.189-.869.213-.366.32-.853.32-1.463V3.839c0-.61-.091-1.097-.274-1.463s-.594-.655-1.234-.869l-.914-.366V.684h11.749v.457l-.914.366c-.61.213-1.021.503-1.234.869-.183.366-.274.853-.274 1.463v23.863c0 .61.091 1.097.274 1.463.213.335.625.625 1.234.869l.914.366v.457H1.007zm13.658 0V30.4l.64-.183c1.067-.305 1.6-1.051 1.6-2.24V13.668c0-.671-.107-1.158-.32-1.463-.213-.335-.625-.564-1.234-.686l-.686-.183v-.457l7.817-2.651.457.457.366 2.743c1.067-.945 2.27-1.722 3.611-2.331s2.667-.914 3.977-.914c2.011 0 3.55.549 4.617 1.646 1.097 1.097 1.646 2.773 1.646 5.029v13.166c0 1.189.579 1.935 1.737 2.24l.411.137v.457H28.514v-.457l.594-.183c1.067-.335 1.6-1.082 1.6-2.24V13.395c0-1.95-.975-2.926-2.926-2.926-1.341 0-2.804.671-4.389 2.011v15.543c0 1.189.533 1.935 1.6 2.24l.411.137v.457H14.661zm34.891.686c-1.95 0-3.474-.488-4.571-1.463-1.067-.975-1.6-2.529-1.6-4.663V9.783H40.23v-.457l1.097-.183c.945-.213 1.752-.518 2.423-.914.701-.396 1.387-.929 2.057-1.6l3.749-4.16h.457l-.137 6.4h5.12v.914H49.83V26.24c0 1.067.229 1.874.686 2.423a2.345 2.345 0 0 0 1.829.823c.64 0 1.204-.152 1.691-.457.488-.335.975-.777 1.463-1.326l.457.457c-.609 1.036-1.448 1.859-2.514 2.469s-2.362.914-3.886.914zm19.173-23.36c1.981 0 3.672.411 5.074 1.234 1.402.792 2.469 1.889 3.2 3.291.762 1.371 1.143 2.941 1.143 4.709 0 .335-.015.686-.046 1.051-.031.335-.091.64-.183.914H64.293c.031 3.291.609 5.669 1.737 7.131 1.158 1.432 2.865 2.149 5.12 2.149 1.523 0 2.758-.244 3.703-.731s1.829-1.204 2.651-2.149l.457.411c-.945 1.676-2.209 2.987-3.794 3.931-1.554.945-3.429 1.417-5.623 1.417-2.163 0-4.083-.457-5.76-1.371-1.676-.945-2.987-2.286-3.931-4.023s-1.417-3.809-1.417-6.217c0-2.499.549-4.617 1.646-6.354 1.097-1.768 2.499-3.109 4.206-4.023 1.737-.914 3.551-1.371 5.44-1.371zm-.137.914c-.883 0-1.646.274-2.286.823-.609.518-1.097 1.463-1.463 2.834-.335 1.341-.518 3.246-.549 5.714h7.817c.305-3.322.183-5.714-.366-7.177s-1.6-2.194-3.154-2.194zm11.832 21.76V30.4l.686-.183c.61-.183 1.022-.457 1.234-.823.245-.366.366-.838.366-1.417V13.668c0-.671-.121-1.158-.366-1.463-.213-.335-.624-.564-1.234-.686l-.686-.183v-.457l7.863-2.651.457.457.411 3.931v.366a9.538 9.538 0 0 1 1.646-2.331 9.696 9.696 0 0 1 2.286-1.783c.854-.457 1.691-.686 2.514-.686 1.159 0 2.042.32 2.651.96.61.64.914 1.448.914 2.423 0 1.036-.304 1.844-.914 2.423-.578.549-1.28.823-2.103.823-1.28 0-2.407-.64-3.383-1.92l-.091-.091c-.304-.427-.655-.655-1.051-.686-.395-.061-.761.122-1.097.549a3.72 3.72 0 0 0-.777 1.006c-.183.366-.366.792-.549 1.28v12.754c0 1.219.534 1.981 1.6 2.286l1.463.411v.457h-11.84zm20.179 0V30.4l.64-.183c1.066-.305 1.6-1.051 1.6-2.24V13.668c0-.671-.107-1.158-.32-1.463-.214-.335-.625-.564-1.234-.686l-.686-.183v-.457l7.817-2.651.457.457.366 2.743a14.352 14.352 0 0 1 3.611-2.331c1.341-.61 2.666-.914 3.977-.914 2.011 0 3.55.549 4.617 1.646 1.097 1.097 1.646 2.773 1.646 5.029v13.166c0 1.189.578 1.935 1.737 2.24l.411.137v.457h-10.789v-.457l.594-.183c1.066-.335 1.6-1.082 1.6-2.24V13.395c0-1.95-.976-2.926-2.926-2.926-1.342 0-2.805.671-4.389 2.011v15.543c0 1.189.533 1.935 1.6 2.24l.411.137v.457h-10.743zm37.995.686c-2.317 0-4.328-.472-6.034-1.417-1.707-.975-3.033-2.347-3.977-4.114-.914-1.768-1.371-3.84-1.371-6.217s.487-4.434 1.463-6.171c1.006-1.737 2.361-3.078 4.069-4.023 1.737-.945 3.687-1.417 5.851-1.417 2.163 0 4.098.472 5.806 1.417 1.706.914 3.047 2.24 4.023 3.977 1.006 1.737 1.509 3.809 1.509 6.217s-.473 4.495-1.417 6.263a9.92 9.92 0 0 1-3.931 4.069c-1.677.945-3.673 1.417-5.989 1.417zm0-.914c1.066 0 1.92-.305 2.56-.914s1.097-1.691 1.371-3.246c.304-1.554.457-3.749.457-6.583 0-2.865-.153-5.074-.457-6.629-.274-1.554-.731-2.636-1.371-3.246s-1.494-.914-2.56-.914c-1.067 0-1.936.305-2.606.914-.64.61-1.113 1.691-1.417 3.246-.274 1.554-.411 3.764-.411 6.629 0 2.834.137 5.029.411 6.583.304 1.554.777 2.636 1.417 3.246.67.61 1.538.914 2.606.914z"/>
    </symbol>
    <symbol id="_logo" viewBox="0 0 32 32">
      <path d="M0 32h12.667v-8.942a3.43 3.43 0 1 1 6.86 0V32h12.47V0C14.325 0-.001 14.326-.001 32z"/>
    </symbol>
    <symbol id="_phone" viewBox="0 0 32 32">
      <path stroke-miterlimit="10" stroke-width="1.882" d="M30.119 24.541c-1.15-1.158-3.934-2.849-5.285-3.53-1.759-.886-1.904-.959-3.287.069-.922.686-1.536 1.298-2.615 1.068s-3.425-1.528-5.479-3.576c-2.054-2.047-3.427-4.461-3.658-5.537s.392-1.682 1.071-2.606c.957-1.303.885-1.52.067-3.28-.638-1.368-2.378-4.127-3.54-5.27C6.149.65 6.149.868 5.348 1.201c-.652.274-1.278.608-1.87.997-1.158.77-1.801 1.409-2.251 2.369s-.652 3.213 1.67 7.431 3.951 6.374 7.323 9.736 5.964 5.17 9.754 7.295c4.689 2.626 6.487 2.114 7.451 1.665s1.606-1.086 2.377-2.244c.39-.591.724-1.216.999-1.868.334-.799.551-.799-.68-2.042z"/>
    </symbol>
    <symbol id="_vector" viewBox="0 0 23 32">
      <path d="m14.458 1.186-.414-.684-1.369.828 7.913 13.078-19.821.826.067 1.599 20.559-.857-8.891 14.694 1.369.828 9.214-15.228a.8.8 0 0 0 0-.828L14.459 1.186z"/>
    </symbol>
  </defs>
</svg>