<svg width="100" height="100" viewBox="0 0 100 100" fill="none" xmlns="http://www.w3.org/2000/svg">
<path fill-rule="evenodd" clip-rule="evenodd" d="M50.1599 0.42749C22.7386 0.42749 0.42746 22.7386 0.42746 50.1599C0.42746 77.5813 22.7386 99.892 50.1599 99.892C77.5813 99.892 99.892 77.5813 99.892 50.1599C99.892 22.7386 77.5813 0.42749 50.1599 0.42749ZM58.2394 4.88113C57.9967 4.88113 57.6969 4.86686 57.3543 4.83831C56.8976 4.79549 56.455 4.73839 56.0411 4.66701L56.0125 4.89541C56.3551 4.93823 56.6121 5.0096 56.7691 5.13807C56.9261 5.26655 56.9975 5.45211 56.9689 5.69478C56.9404 5.92317 56.8405 6.23721 56.6406 6.62263L54.2853 11.3617L52.7008 5.56631C52.6295 5.32364 52.6009 5.13807 52.6152 5.0096C52.6295 4.86686 52.7008 4.75266 52.8293 4.70984C52.9578 4.66701 53.1719 4.65274 53.4717 4.66701L53.5002 4.43862C53.1754 4.43862 52.6828 4.3967 52.0225 4.3405L52.0014 4.3387L51.8299 4.31972L51.8295 4.31968C51.3944 4.27165 51.0377 4.23227 50.7595 4.18168L50.731 4.41007C51.0735 4.4529 51.3162 4.72411 51.459 5.22372L53.6144 12.8035L53.7001 12.8177L53.8 12.832L57.1973 6.03737C57.4685 5.46639 57.8111 5.16662 58.2108 5.10953L58.2394 4.88113ZM66.9466 7.85032C66.8039 7.85032 66.6897 7.90741 66.6041 8.02161C66.5184 8.13581 66.4185 8.32138 66.3186 8.59259L64.2773 14.0169C64.1774 14.2881 64.1203 14.5022 64.1203 14.645C64.1203 14.7877 64.1631 14.9019 64.263 14.9875C64.363 15.0732 64.5485 15.1731 64.8055 15.2873L64.7198 15.5014C64.3915 15.3587 63.9347 15.1731 63.3495 14.9447C62.7214 14.7021 62.2503 14.545 61.9363 14.4451L62.0219 14.231C62.2931 14.3166 62.493 14.3595 62.6215 14.3595C62.7499 14.3595 62.8784 14.3024 62.964 14.1882C63.0497 14.074 63.1496 13.8884 63.2495 13.6172L65.2908 8.1929C65.3907 7.92169 65.4478 7.70757 65.4478 7.56483C65.4478 7.42208 65.405 7.30788 65.3051 7.22224C65.2051 7.13659 65.0196 7.03667 64.7626 6.92247L64.8483 6.70835C65.1481 6.83682 65.6048 7.02239 66.2329 7.26506C66.8182 7.49345 67.2892 7.65047 67.6318 7.75039L67.5462 7.96451C67.2892 7.87887 67.0894 7.83604 66.9466 7.85032ZM79.2371 15.5014C79.3655 15.4157 79.5083 15.3729 79.651 15.4014C79.7938 15.4157 79.9793 15.5156 80.222 15.6584L80.3648 15.4728C80.1364 15.3443 79.8366 15.1302 79.4655 14.859C79.0515 14.545 78.7375 14.3023 78.5233 14.1167L78.3806 14.3023C78.6233 14.4879 78.7946 14.6592 78.8659 14.8019C78.9373 14.9447 78.9516 15.0874 78.9088 15.2444C78.8659 15.4014 78.7375 15.6013 78.5662 15.844L75.5971 19.8694L76.0538 12.3039C75.8255 12.1754 75.5828 12.0041 75.2973 11.79C74.9119 11.5188 74.6264 11.2904 74.4408 11.1191L74.2981 11.3046C74.5265 11.4902 74.6692 11.633 74.7406 11.7472C74.812 11.8614 74.8262 11.9898 74.7834 12.1183C74.7406 12.2468 74.6264 12.4323 74.4551 12.675L71.0863 17.2429C70.915 17.4855 70.758 17.6425 70.6295 17.7425C70.5011 17.8281 70.3583 17.8709 70.2156 17.8424C70.0728 17.8281 69.8872 17.7425 69.6589 17.5854L69.5161 17.771C69.7445 17.8995 70.0443 18.1136 70.4154 18.3848C70.8294 18.6989 71.1434 18.9415 71.3575 19.1271L71.5003 18.9415C71.2576 18.7417 71.0863 18.5847 71.0149 18.4419C70.9436 18.2992 70.915 18.1564 70.9721 17.9994C71.0292 17.8424 71.1434 17.6425 71.3147 17.3999L74.9833 12.4323L74.4266 21.4538L74.6407 21.6109L78.7803 16.001C78.9516 15.7583 79.1086 15.587 79.2371 15.5014ZM84.433 21.8392C84.8042 21.568 85.1896 21.2682 85.6035 20.8971C85.9604 21.4395 86.5885 22.3388 87.4878 23.6093C88.3871 24.8654 89.0294 25.7504 89.4149 26.2643C88.9295 26.5498 88.5156 26.8068 88.1444 27.0637C87.8304 27.2921 87.5734 27.4919 87.3879 27.6489L87.2309 27.4348C87.6876 27.0351 88.0017 26.7068 88.1872 26.4642C88.3728 26.2215 88.4442 25.9646 88.4299 25.6933C88.4156 25.4221 88.2443 25.0938 87.9731 24.6941L87.602 24.1802L82.1919 28.0344C81.935 28.2199 81.7494 28.3912 81.6638 28.5197C81.5781 28.6482 81.5496 28.8052 81.6067 28.9765C81.6495 29.1335 81.778 29.3619 81.9635 29.6474L81.778 29.7901C81.5639 29.4475 81.2355 28.9622 80.8073 28.377C80.3505 27.7346 80.0079 27.2778 79.7795 26.9923L79.9651 26.8496C80.1792 27.1208 80.3505 27.3064 80.4933 27.4063C80.636 27.5062 80.7788 27.5348 80.9358 27.4919C81.0928 27.4491 81.3069 27.3349 81.5639 27.1493L86.9739 23.2952L86.6028 22.7813C86.3173 22.3816 86.0603 22.139 85.8177 22.0248C85.575 21.9106 85.3038 21.8963 85.0183 21.9962C84.7328 22.0962 84.3188 22.2817 83.7907 22.5815L83.6337 22.3674C83.8478 22.2532 84.1047 22.0819 84.433 21.8392ZM86.9452 41.7237L87.1736 41.6524C87.088 41.3098 87.2307 40.9814 87.6019 40.6246L93.6543 35.5857L93.5972 35.4144L86.0031 35.0718C85.375 35.0575 84.9468 34.8719 84.7469 34.5294L84.5186 34.6007C84.6185 34.8149 84.7184 35.0861 84.8326 35.4144L84.8334 35.417C84.9759 35.8444 85.1183 36.2718 85.2323 36.6991L85.4607 36.6277C85.3608 36.2994 85.3322 36.0282 85.375 35.8426C85.4321 35.657 85.5749 35.5286 85.8033 35.4429C86.0317 35.3573 86.36 35.3287 86.7882 35.3573L88.1157 35.4144L89.015 38.0837L87.4306 39.3827C87.245 39.5397 87.088 39.6396 86.9595 39.6825C86.8168 39.7396 86.6883 39.711 86.5884 39.6111C86.5027 39.5112 86.3885 39.3113 86.2886 39.0401L86.0602 39.1115C86.1887 39.4255 86.36 39.8966 86.5741 40.5247C86.7454 41.01 86.8596 41.4097 86.9452 41.7237ZM88.387 35.4287L92.1269 35.5857L89.2292 37.941L88.387 35.4287ZM88.2159 52.5724C88.3586 52.5153 88.43 52.4439 88.43 52.344C88.43 52.2869 88.4157 52.2441 88.3872 52.2013C88.3586 52.1584 88.3015 52.0728 88.2159 51.9586C88.0018 51.6874 87.8447 51.4019 87.7305 51.1164C87.6163 50.8309 87.5592 50.5026 87.5592 50.1457C87.545 49.3464 87.702 48.6612 88.016 48.0759C88.3443 47.4907 88.8011 47.0481 89.4292 46.7341C90.043 46.4201 90.7853 46.263 91.656 46.2488C92.5553 46.2345 93.3404 46.3772 94.0113 46.6913C94.6822 47.0053 95.2104 47.4336 95.5815 48.0045C95.9527 48.5755 96.1525 49.2179 96.1525 49.9316C96.1525 50.2456 96.124 50.5311 96.0669 50.7738C96.0098 51.0165 95.9241 51.2306 95.8242 51.4162C95.7243 51.6017 95.5958 51.8158 95.4245 52.0442C95.3531 52.1442 95.3103 52.2298 95.3103 52.2869C95.3103 52.4297 95.553 52.5296 96.024 52.5724V52.8436C95.5244 52.8151 94.6251 52.8151 93.3404 52.8436V52.5724C93.7544 52.501 94.097 52.4154 94.3682 52.3297C94.6394 52.2441 94.8678 52.1156 95.0677 51.9586C95.3389 51.7302 95.5673 51.4304 95.7243 51.0593C95.8813 50.6882 95.9527 50.317 95.9527 49.9173C95.9384 49.4034 95.7671 48.9609 95.4245 48.5755C95.0819 48.1901 94.5966 47.9046 93.9828 47.6905C93.3547 47.4907 92.641 47.3907 91.813 47.405C90.8709 47.4193 90.1144 47.5335 89.5149 47.7476C88.9153 47.9617 88.4871 48.2758 88.2016 48.6897C87.9161 49.1037 87.7876 49.6318 87.8019 50.2742C87.8162 50.7453 87.9447 51.1449 88.1873 51.4875C88.2872 51.6303 88.3729 51.7159 88.4728 51.7587C88.5585 51.8016 88.6869 51.8158 88.8439 51.8158L89.9716 51.8016C90.3 51.8016 90.5283 51.7587 90.6854 51.7016C90.8281 51.6445 90.9423 51.5304 90.9851 51.3591C91.0422 51.202 91.0708 50.9451 91.0708 50.6025H91.2992C91.2849 50.9879 91.2706 51.5304 91.2849 52.2584C91.2992 52.8008 91.3134 53.2147 91.342 53.4717H91.1136C91.0993 53.2861 91.0565 53.1577 91.0137 53.0863C90.9709 53.0149 90.8709 52.9578 90.7425 52.9293C90.614 52.9007 90.3999 52.8864 90.1001 52.9007L87.7876 52.9435V52.7151C87.8557 52.6849 87.9318 52.6626 88.0096 52.6399C88.0785 52.6198 88.1488 52.5993 88.2159 52.5724ZM85.061 64.3488C85.6177 64.463 86.1031 64.5915 86.517 64.72L86.5779 64.7403C86.8918 64.8447 87.1411 64.9276 87.3021 65.0483L87.3878 64.7913C86.8882 64.5629 86.517 64.3488 86.2744 64.1632C86.0317 63.9634 85.889 63.735 85.8461 63.4495C85.789 63.1783 85.8461 62.8072 85.9889 62.3361L86.2458 61.5225C86.3315 61.2512 86.4171 61.0657 86.5028 60.9515C86.5741 60.8373 86.6883 60.7802 86.8311 60.7802C86.9738 60.7802 87.1737 60.823 87.4592 60.9087L90.1428 61.7508L89.9144 62.4931C89.8145 62.7929 89.6717 63.007 89.4576 63.1212C89.2435 63.2354 88.9723 63.2639 88.6582 63.2069C88.4531 63.1603 88.3028 63.1319 88.2073 63.1139L88.1474 63.1025C88.1276 63.0986 88.1122 63.0954 88.1015 63.0927L88.0159 63.3496C88.701 63.5066 89.2435 63.6636 89.6146 63.7778L90.1428 63.9349C90.4854 64.0348 90.8279 64.1632 91.1848 64.306L91.2705 64.049C91.2134 64.0205 91.0706 63.9491 90.8422 63.8492C90.6138 63.7493 90.414 63.6065 90.2284 63.4067C90.0428 63.2069 90.0143 62.9214 90.1285 62.5502L90.3569 61.8079L92.9834 62.6359C93.2689 62.7215 93.4545 62.8072 93.5687 62.8928C93.6829 62.9785 93.7257 63.0927 93.74 63.2211C93.7542 63.3496 93.7114 63.5494 93.6258 63.8207L93.3403 64.7485C93.2118 65.1339 93.069 65.4194 92.8978 65.5764C92.7265 65.7477 92.5123 65.8334 92.2554 65.8334C91.9985 65.8334 91.613 65.7905 91.1134 65.6906L91.0278 65.9476C91.1991 65.9761 91.4417 66.0475 91.7272 66.1331C92.1269 66.2473 92.5552 66.4186 93.0262 66.6185C93.1404 66.1474 93.3831 65.3623 93.7257 64.2774L93.7318 64.2585L93.7349 64.2486L93.7382 64.2385L93.7383 64.2382L93.7404 64.2312C94.1899 62.8269 94.5277 61.7716 94.782 61.0514L94.5536 60.98C94.4537 61.237 94.368 61.4225 94.2824 61.5367C94.1967 61.6509 94.0825 61.708 93.9398 61.708C93.7971 61.708 93.5972 61.6652 93.3117 61.5796L87.7875 59.8381C87.5163 59.7524 87.3164 59.6668 87.2022 59.5811C87.088 59.4955 87.0309 59.3955 87.0166 59.2528C87.0166 59.1101 87.0452 58.9102 87.1166 58.639L86.8882 58.5676C86.6883 59.2956 86.36 60.3805 85.9032 61.8079C85.5178 63.007 85.2466 63.8492 85.061 64.3488ZM82.4489 82.2348C82.506 82.1064 82.4918 81.9779 82.4347 81.8494C82.3776 81.7209 82.2348 81.5639 82.0207 81.3498L77.824 77.3387C77.6099 77.1388 77.4386 77.0104 77.3101 76.9533C77.1816 76.8962 77.0532 76.8962 76.9247 76.9533C76.7962 77.0104 76.6392 77.1388 76.4394 77.3387L76.2681 77.1816C76.4675 77.0033 76.7054 76.7632 76.9933 76.4727L77.1048 76.3602L77.1986 76.2658L77.3244 76.1396C77.7812 75.6543 78.1238 75.2831 78.3379 75.0405L78.5092 75.1975C78.3236 75.4116 78.2094 75.5829 78.1523 75.6971C78.0952 75.8256 78.1095 75.954 78.1666 76.0825C78.2237 76.211 78.3664 76.368 78.5805 76.5821L82.7773 80.5933C82.9914 80.7931 83.1627 80.9216 83.2911 80.9787C83.4196 81.0358 83.5481 81.0358 83.6765 80.9787C83.805 80.9216 83.962 80.7931 84.1619 80.5933L84.3332 80.7503C84.0905 80.9644 83.7336 81.3213 83.2769 81.8066C82.8344 82.2634 82.506 82.6345 82.2776 82.9057L82.1064 82.7487C82.2776 82.5346 82.3918 82.3633 82.4489 82.2348ZM70.6295 90.5283C70.6581 90.6853 70.6438 90.8138 70.5582 90.9422C70.4725 91.0564 70.3155 91.1992 70.1014 91.3562L70.2156 91.556C70.4297 91.399 70.7295 91.2134 71.1291 90.9708L71.1588 90.9536L71.1589 90.9535L71.1609 90.9523C71.5881 90.7043 71.9204 90.5113 72.1712 90.3998L72.057 90.2C71.7858 90.3427 71.5717 90.4283 71.4004 90.4426C71.2291 90.4569 71.0863 90.4141 70.9721 90.3142C70.8436 90.2142 70.7152 90.0287 70.5582 89.7717L68.0173 85.4608L74.7977 88.8439C75.0118 88.7011 75.2688 88.5298 75.5685 88.3585C75.9825 88.1159 76.2965 87.9446 76.5249 87.8304L76.4107 87.6305C76.168 87.759 75.9682 87.8304 75.8397 87.8589C75.697 87.8875 75.5828 87.8447 75.4686 87.759C75.3544 87.6734 75.2259 87.5021 75.0832 87.2451L72.1997 82.349C72.0427 82.0777 71.9428 81.8779 71.9142 81.7209C71.8857 81.5639 71.9 81.4354 71.9856 81.3069C72.057 81.1784 72.214 81.0357 72.4424 80.893L72.3282 80.6931C72.1141 80.8501 71.8143 81.0357 71.4146 81.2784L71.3786 81.2994L71.3778 81.2998C70.9531 81.5464 70.6223 81.7384 70.3726 81.8494L70.5011 82.0492C70.7723 81.9065 70.9864 81.8208 71.1434 81.8065C71.3004 81.7923 71.4432 81.8351 71.5717 81.935C71.7001 82.0349 71.8286 82.2205 71.9856 82.4774L75.1117 87.7876L67.0323 83.7479L66.804 83.8906L70.344 89.9002C70.5011 90.1714 70.601 90.3713 70.6295 90.5283ZM62.7072 92.8123C62.8071 93.2549 62.9356 93.7402 63.1069 94.2541C62.5994 94.3444 61.8246 94.5059 60.7755 94.7245C60.4967 94.7826 60.1985 94.8448 59.8808 94.9107C58.3677 95.239 57.3114 95.4817 56.6833 95.6387C56.612 95.082 56.5406 94.5967 56.4407 94.1542C56.355 93.7687 56.2836 93.4547 56.198 93.2263L56.4549 93.1692C56.6405 93.7545 56.8118 94.1684 56.9688 94.4396C57.1258 94.7109 57.3257 94.8822 57.5826 94.9678C57.8396 95.0534 58.2107 95.0392 58.6818 94.9392L59.2956 94.8108L57.8967 88.3159C57.8253 88.0018 57.7539 87.7734 57.654 87.645C57.5541 87.5165 57.4399 87.4308 57.2686 87.4166C57.0973 87.388 56.8404 87.4166 56.4978 87.4737L56.4549 87.2453C56.8546 87.1882 57.4256 87.074 58.1393 86.917L58.2254 86.8976L58.226 86.8974C58.9396 86.7359 59.4807 86.6134 59.8237 86.5173L59.8666 86.7457C59.524 86.8313 59.2956 86.917 59.1528 87.0026C59.0101 87.0883 58.9244 87.2167 58.8959 87.3737C58.8673 87.5308 58.8816 87.7734 58.953 88.0875L60.3519 94.5824L60.9657 94.4539C61.4368 94.354 61.7793 94.2112 61.9792 94.0257C62.179 93.8401 62.2932 93.5974 62.3218 93.2977C62.3503 92.9979 62.336 92.5411 62.2647 91.9416L62.5216 91.8845L62.5346 91.9541C62.5758 92.1751 62.6299 92.4647 62.7072 92.8123ZM43.8219 87.3022C43.8219 87.859 43.8076 88.3586 43.7648 88.8011C43.722 89.1437 43.6934 89.4292 43.6934 89.6433L43.9646 89.6718C44.0788 89.1294 44.193 88.7154 44.3358 88.4442C44.4785 88.173 44.6784 87.9731 44.9353 87.8732C45.2065 87.759 45.5777 87.7305 46.063 87.7733L46.9195 87.8447C47.1907 87.8732 47.3905 87.9161 47.519 87.9732C47.6475 88.0302 47.7331 88.1302 47.7617 88.2586C47.7902 88.4014 47.8045 88.6155 47.7759 88.901L47.5333 91.6988L46.7624 91.6274C46.4484 91.5989 46.2057 91.499 46.0487 91.3134C45.8774 91.1421 45.806 90.8852 45.7918 90.5568C45.7918 90.329 45.7849 90.17 45.7808 90.0749L45.7807 90.0726L45.7806 90.0711L45.7805 90.0701L45.7804 90.0672C45.7787 90.0293 45.7775 90.0023 45.7775 89.9859L45.5063 89.9573C45.4777 90.671 45.4492 91.2135 45.4206 91.6132L45.3778 92.1699L45.3773 92.174C45.3347 92.5295 45.292 92.8851 45.2351 93.269L45.5063 93.2975L45.5151 93.2528L45.5153 93.2519C45.5315 93.1683 45.5591 93.0265 45.6062 92.8265C45.649 92.5838 45.7632 92.3554 45.906 92.127C46.063 91.8986 46.3342 91.813 46.7196 91.8415L47.4904 91.9129L47.2478 94.6536C47.2192 94.9391 47.1764 95.1532 47.1193 95.2817C47.0622 95.4102 46.9623 95.4958 46.8338 95.5244C46.7053 95.5529 46.5055 95.5672 46.22 95.5386L45.2493 95.453C44.8497 95.4245 44.5356 95.3388 44.35 95.2103C44.1502 95.0819 44.0217 94.8963 43.9646 94.6394C43.8933 94.3824 43.8647 94.0113 43.8504 93.4974L43.5792 93.4688C43.5935 93.6544 43.5792 93.8971 43.5507 94.1968C43.5221 94.6108 43.4508 95.0676 43.3508 95.5672C43.8362 95.5958 44.6498 95.6528 45.7918 95.7528C47.2763 95.8812 48.404 95.9954 49.1606 96.0811L49.1748 95.8527C48.9036 95.8241 48.7038 95.767 48.5753 95.7099C48.4468 95.6528 48.3612 95.5529 48.3326 95.4102C48.3041 95.2674 48.2898 95.0533 48.3184 94.7678L48.8323 88.9866C48.8608 88.7012 48.9036 88.487 48.9607 88.3586C49.0178 88.2301 49.1177 88.1587 49.2462 88.1159C49.3747 88.0731 49.5745 88.0588 49.86 88.0731L49.8743 87.8447C49.1709 87.8057 48.1702 87.719 46.8724 87.6065L46.4912 87.5735C45.2351 87.4593 44.35 87.3736 43.8219 87.3022ZM32.5308 83.5052C32.7449 83.4624 32.9875 83.5052 33.2445 83.6194C33.5443 83.7479 33.7441 83.9335 33.8583 84.1761C33.9725 84.4331 33.9868 84.7899 33.9154 85.261L33.7013 86.4315C33.6299 86.8455 33.5871 87.1595 33.5728 87.4022C33.5585 87.6306 33.6156 87.8447 33.7155 88.0303C33.8155 88.2158 34.001 88.3586 34.2723 88.4728L35.3 88.901L36.3421 86.4172C36.4563 86.146 36.5134 85.9462 36.5276 85.8034C36.5419 85.6607 36.4848 85.5465 36.3849 85.4466C36.285 85.3467 36.1137 85.2467 35.8567 85.1325L35.9424 84.9184C36.2707 85.0754 36.7132 85.2753 37.2985 85.518C37.9123 85.7749 38.3833 85.9605 38.6974 86.0604L38.6117 86.2745C38.3405 86.1746 38.1407 86.1318 38.0122 86.1175C37.8694 86.1175 37.7552 86.1603 37.6696 86.2745C37.5697 86.3744 37.4698 86.56 37.3556 86.8312L35.1145 92.1842C35.0003 92.4554 34.9432 92.6552 34.9289 92.798C34.9146 92.9407 34.9717 93.0549 35.0716 93.1548C35.1716 93.2547 35.3428 93.3547 35.5998 93.4831L35.5141 93.6973C35.2144 93.5545 34.7861 93.3547 34.2152 93.112C34.0191 93.0336 33.8163 92.9484 33.5975 92.8566L33.4381 92.7897L33.2873 92.7266C33.1166 92.6556 32.9743 92.5986 32.8586 92.5523C32.742 92.5057 32.6523 92.4698 32.5879 92.4411C32.0312 92.1984 31.5886 91.9272 31.2603 91.5989C30.932 91.2706 30.7464 90.928 30.6608 90.5569C30.5752 90.1857 30.618 89.8289 30.775 89.472C30.8892 89.1865 31.0748 88.9296 31.3317 88.7012C31.5886 88.4728 31.917 88.3015 32.3166 88.2158C32.7163 88.1302 33.2017 88.1445 33.7298 88.2729L33.6014 88.2016C33.3016 88.016 33.0732 87.8304 32.9305 87.6306C32.7877 87.445 32.6878 87.2309 32.6592 87.0025C32.6164 86.7741 32.6307 86.4886 32.6878 86.146L32.8876 84.9327C32.9304 84.69 32.959 84.5045 32.959 84.3617C32.959 84.219 32.9447 84.1048 32.9019 84.0191C32.8591 83.9335 32.7877 83.8621 32.6878 83.8336C32.5736 83.7765 32.4594 83.7765 32.3595 83.805C32.2595 83.8336 32.1168 83.9049 31.9312 84.0048L31.817 83.8193C32.074 83.6623 32.3166 83.5481 32.5308 83.5052ZM33.2445 88.587C32.9019 88.6298 32.6307 88.7583 32.4166 88.9724C32.2024 89.1865 32.0169 89.472 31.8599 89.8431C31.6172 90.4284 31.5601 90.9423 31.7171 91.3562C31.8741 91.7702 32.2595 92.1128 32.9019 92.384C33.1303 92.4839 33.3016 92.5268 33.4443 92.5125C33.5728 92.5125 33.687 92.4554 33.7869 92.3412C33.8868 92.227 33.9868 92.0414 34.0867 91.7845L35.2001 89.1294L34.4721 88.8296C34.001 88.6298 33.5871 88.5441 33.2445 88.587ZM21.7677 85.3895C21.6535 85.4609 21.5251 85.4894 21.3966 85.4466C21.2681 85.4038 21.0968 85.3039 20.8542 85.1469L20.7114 85.3324C20.9969 85.5323 21.3966 85.832 21.8962 86.2174C22.4244 86.6457 22.8098 86.9597 23.0524 87.1738L23.1952 86.9883C22.9811 86.8027 22.8383 86.6457 22.767 86.5315C22.6956 86.4173 22.6813 86.2888 22.7241 86.1603C22.767 86.0319 22.8812 85.8463 23.0667 85.6179L26.6496 81.0501C26.8352 80.8217 26.9922 80.6646 27.1064 80.5933C27.2206 80.5076 27.3491 80.4934 27.4776 80.5362C27.606 80.5647 27.7916 80.6647 28.02 80.8359L28.1627 80.6504C27.8915 80.4648 27.4918 80.165 26.9637 79.7511C26.4641 79.3657 26.0929 79.0516 25.8217 78.809L25.679 78.9945C25.8931 79.1801 26.0358 79.3371 26.1072 79.4513C26.1786 79.5655 26.1928 79.694 26.15 79.8225C26.1072 79.9509 25.993 80.1365 25.8074 80.3649L22.2245 84.9327C22.039 85.1611 21.8819 85.3181 21.7677 85.3895ZM12.1754 75.2832C12.1183 74.6409 12.261 73.9985 12.5893 73.3847C12.9319 72.7566 13.4458 72.1999 14.1595 71.6717C14.859 71.1721 15.5584 70.8438 16.2864 70.7154C17.0144 70.5869 17.6853 70.6297 18.3134 70.8724C18.9415 71.115 19.4697 71.529 19.8836 72.1143C20.3261 72.7138 20.5688 73.3419 20.6259 73.9842C20.683 74.6266 20.5402 75.2689 20.2119 75.8827C19.8693 76.5108 19.3555 77.0675 18.6417 77.5957C17.9423 78.0953 17.2428 78.4236 16.5148 78.5521C15.8011 78.6805 15.1159 78.6377 14.4878 78.3951C13.8598 78.1524 13.3316 77.7384 12.9176 77.1674C12.4751 76.5536 12.2325 75.9256 12.1754 75.2832ZM14.3165 77.8241C14.8162 77.924 15.3871 77.8812 16.0152 77.6813C16.6433 77.4815 17.2714 77.1532 17.928 76.6678C18.5846 76.1968 19.0985 75.6829 19.4554 75.1405C19.8265 74.598 20.0264 74.0556 20.0549 73.5417C20.0977 73.0278 19.9693 72.571 19.698 72.1856C19.3983 71.7859 19.0129 71.529 18.499 71.4291C17.9994 71.3292 17.4284 71.372 16.8003 71.5718C16.1722 71.7717 15.5442 72.1 14.8875 72.571C14.2309 73.0421 13.717 73.556 13.3602 74.1127C12.989 74.6551 12.7892 75.1833 12.7463 75.7114C12.7035 76.2253 12.832 76.6821 13.1032 77.0675C13.403 77.4672 13.8027 77.7242 14.3165 77.8241ZM13.6599 58.7247C13.5742 58.4392 13.4458 58.2251 13.2745 58.0966C13.1175 57.9681 12.8748 57.854 12.5893 57.754L12.5179 57.9681C12.7178 58.0395 12.8605 58.1109 12.9462 58.168C13.0318 58.2251 13.0889 58.3107 13.1317 58.4392C13.1603 58.5391 13.1603 58.639 13.1175 58.7247C13.0746 58.8103 12.989 58.896 12.8891 58.9816C12.7891 59.0673 12.6178 59.1815 12.4037 59.2957L11.3474 59.9238C11.0476 60.0951 10.8193 60.2806 10.6622 60.4519C10.5195 60.6232 10.4196 60.8231 10.3625 61.0657C10.3054 61.3084 10.3196 61.5939 10.3625 61.9507L10.3767 62.0935C10.1341 61.5939 9.8486 61.2227 9.50601 60.9658C9.16339 60.7089 8.83508 60.5661 8.49252 60.5233C8.14993 60.4805 7.83588 60.509 7.55038 60.5947C7.17926 60.7089 6.87949 60.9087 6.65109 61.2085C6.4227 61.5082 6.27994 61.8794 6.23712 62.3362C6.19431 62.7929 6.2514 63.3068 6.43698 63.8921C6.44504 63.9163 6.45462 63.9445 6.46564 63.9767L6.5011 64.08L6.5032 64.0862L6.50531 64.0923L6.50775 64.0994C6.55264 64.23 6.61099 64.3999 6.67963 64.6058C6.70847 64.6923 6.73727 64.7779 6.76566 64.862C6.84967 65.1114 6.92963 65.3488 6.99368 65.5622C7.17926 66.1617 7.30771 66.6185 7.37909 66.9326L7.60748 66.8612C7.5361 66.59 7.49329 66.3901 7.50757 66.2474C7.52185 66.1189 7.57895 66.0047 7.69312 65.9191C7.80734 65.8334 7.99289 65.7478 8.27838 65.6621L13.8169 63.9492C14.0881 63.8493 14.3022 63.8207 14.445 63.8207C14.5877 63.8207 14.7019 63.8921 14.7876 63.992C14.8732 64.0919 14.9589 64.2775 15.0588 64.5487L15.2872 64.4773C15.173 64.1776 15.016 63.7065 14.8161 63.0642C14.6163 62.4646 14.4878 61.9793 14.4022 61.6367L14.1738 61.7081C14.2451 61.9793 14.288 62.1934 14.2737 62.3219C14.2594 62.4504 14.2023 62.5645 14.0881 62.6502C13.9739 62.7358 13.7884 62.8215 13.5029 62.9071L10.9335 63.7065L10.6051 62.6359C10.5195 62.3504 10.5195 62.122 10.5909 61.9222C10.6622 61.7224 10.7907 61.5511 10.9763 61.4083C11.1618 61.2656 11.4331 61.0943 11.7899 60.8801L12.832 60.2949C13.2459 60.0522 13.5171 59.8096 13.6313 59.5526C13.7455 59.31 13.7598 59.0245 13.6599 58.7247ZM9.03491 61.5368C9.33469 61.5653 9.62021 61.6938 9.86292 61.9222C10.1055 62.1506 10.3054 62.5217 10.4481 63.0356L10.6765 63.7922L7.93579 64.6486C7.67886 64.72 7.46475 64.7628 7.32199 64.7628C7.17926 64.7628 7.05078 64.7057 6.96512 64.6058C6.87949 64.5059 6.79385 64.3346 6.72247 64.1062C6.52261 63.4638 6.52261 62.9357 6.75101 62.5503C6.9794 62.1649 7.39337 61.8651 8.00717 61.6795C8.39258 61.5511 8.73517 61.5082 9.03491 61.5368ZM12.1753 44.5501C12.7177 44.3074 13.046 43.8506 13.1888 43.1655C13.2316 42.9085 13.2316 42.6516 13.1602 42.4089C13.0889 42.1662 12.9604 41.9521 12.7606 41.7666C12.5607 41.581 12.2895 41.4525 11.9326 41.3954C11.6329 41.3383 11.3617 41.3669 11.1047 41.4668C10.8478 41.5667 10.5908 41.7237 10.3482 41.9379C10.1055 42.152 9.82001 42.4375 9.50601 42.7943C9.14911 43.194 8.83505 43.5223 8.56384 43.7507C8.29263 43.9934 7.99286 44.1647 7.66455 44.2932C7.33624 44.4216 6.96509 44.4359 6.55115 44.3645C6.12289 44.2789 5.76605 44.1219 5.50909 43.8649C5.25214 43.608 5.06659 43.3082 4.98093 42.9513C4.89529 42.5945 4.89529 42.2233 4.96667 41.8237C5.00949 41.581 5.06659 41.3954 5.13797 41.2241C5.20932 41.0528 5.2807 40.9244 5.36636 40.8244C5.38068 40.8078 5.39499 40.7907 5.40942 40.7733L5.44205 40.7337C5.50439 40.6579 5.57095 40.577 5.65182 40.4961C5.79459 40.3391 5.86597 40.2249 5.8945 40.1393C5.90878 40.0679 5.88022 40.0108 5.80887 39.9537C5.73755 39.8967 5.60919 39.8539 5.43808 39.7969L5.43771 39.7967L5.48056 39.5397C5.92307 39.6539 6.69388 39.8252 7.82156 40.0393L7.77875 40.2963C7.37906 40.2535 7.00793 40.2677 6.63678 40.3534C6.27991 40.4248 5.96588 40.5818 5.70895 40.8244C5.452 41.0528 5.2807 41.3811 5.20932 41.7808C5.15222 42.0521 5.1665 42.2947 5.23788 42.5374C5.30927 42.7801 5.43771 42.9656 5.60901 43.1226C5.79459 43.2797 6.0087 43.3796 6.26562 43.4367C6.6796 43.5081 7.03647 43.451 7.33624 43.2511C7.63599 43.0513 7.92148 42.7943 8.19272 42.4946C8.2963 42.3801 8.38531 42.2802 8.46133 42.1949C8.58435 42.0568 8.67337 41.9569 8.73514 41.895C9.1348 41.4668 9.4631 41.1385 9.73441 40.8958C10.0056 40.6531 10.3053 40.4819 10.6337 40.3677C10.962 40.2535 11.3188 40.2392 11.7042 40.3106C12.1753 40.3962 12.5607 40.5818 12.8462 40.853C13.1317 41.1385 13.3173 41.4668 13.4172 41.8665C13.5171 42.2662 13.5171 42.6944 13.4315 43.1512C13.3601 43.5223 13.2744 43.8078 13.146 44.0362C13.0318 44.2646 12.8748 44.4644 12.7035 44.65C12.5607 44.807 12.4893 44.9212 12.4608 45.0069C12.4465 45.0783 12.4751 45.1354 12.5464 45.1925C12.6178 45.2495 12.7463 45.3066 12.9176 45.3495L12.8748 45.6064C12.4608 45.4922 11.5472 45.3066 10.134 45.0497L10.1769 44.7928C10.9762 44.8641 11.6329 44.7928 12.1753 44.5501ZM7.97852 31.9027C8.4924 32.1026 8.94919 32.3024 9.34891 32.5165C9.6915 32.7021 9.97699 32.8591 10.1625 32.9733L10.291 32.7307C9.7771 32.4023 9.4202 32.1169 9.20612 31.9027C8.992 31.6886 8.87781 31.446 8.86353 31.1747C8.84927 30.9035 8.94919 30.5609 9.17761 30.1327L9.47729 29.576L15.3727 32.6593C15.6582 32.8163 15.8438 32.9448 15.958 33.0733C16.0722 33.2017 16.115 33.3445 16.0865 33.5158C16.0722 33.6728 15.9723 33.9154 15.8295 34.2295L16.0436 34.3437C16.2006 34.0154 16.4576 33.4872 16.8145 32.802C17.157 32.1454 17.4283 31.6458 17.6424 31.2889L17.4283 31.1747C17.257 31.4745 17.1142 31.6886 16.9857 31.8028C16.8573 31.917 16.7145 31.9598 16.5575 31.9456C16.4005 31.9313 16.1721 31.8599 15.8866 31.7029L9.99121 28.6339L10.2767 28.0629C10.4908 27.6347 10.7192 27.3492 10.9476 27.2064C11.176 27.0637 11.4472 27.0066 11.747 27.0637C12.0468 27.1065 12.475 27.2492 13.046 27.4776L13.1744 27.235L13.1261 27.2139C12.9045 27.117 12.6226 26.9938 12.3037 26.821C11.9183 26.6212 11.4901 26.3642 11.019 26.0645C10.7478 26.6497 10.2482 27.6204 9.53439 28.9907C8.82071 30.3754 8.29257 31.346 7.97852 31.9027ZM19.4268 16.1153C19.6694 15.8726 19.8693 15.6442 20.012 15.4729L20.1833 15.6442C20.0977 15.7727 20.0549 15.9582 20.0691 16.1724C20.0834 16.3865 20.1405 16.6862 20.2547 17.0431L21.5537 20.9115L23.0668 22.4103C23.2809 22.6102 23.4379 22.7529 23.5664 22.81C23.6949 22.8671 23.8233 22.8671 23.9518 22.81C24.0803 22.7529 24.2373 22.6244 24.4514 22.4389L24.6227 22.6102C24.3515 22.8528 23.9946 23.1954 23.5521 23.6379C23.0811 24.109 22.7385 24.4801 22.5244 24.7228L22.3531 24.5515C22.5386 24.3374 22.6671 24.1804 22.7242 24.0519C22.7813 23.9234 22.7813 23.795 22.7099 23.6665C22.6528 23.538 22.5101 23.3667 22.3102 23.1669L21.0541 21.925L16.2864 20.5261C16.0009 20.4404 15.7868 20.4119 15.644 20.4262C15.5013 20.4404 15.4014 20.4833 15.33 20.5546L15.1587 20.3833C15.3871 20.1835 15.644 19.9551 15.901 19.6839L16.0866 19.4937L16.1857 19.3923C16.569 19 16.8551 18.7074 17.0287 18.4991L17.2 18.6704C16.8145 19.0558 16.7289 19.3556 16.943 19.5697C17.0287 19.6553 17.1429 19.7124 17.3141 19.7695L21.3253 21.0114L20.269 17.8567C20.112 17.4 19.9549 17.0859 19.7836 16.9289C19.6266 16.7719 19.4553 16.7291 19.2698 16.7862C19.0842 16.8433 18.8701 16.986 18.6131 17.2287L18.4418 17.0574C18.6695 16.8487 18.8846 16.64 19.0996 16.4312L19.1004 16.4306L19.1012 16.4298L19.102 16.429C19.2097 16.3244 19.3175 16.2199 19.4268 16.1153ZM27.9628 10.7337C27.9343 10.591 27.9771 10.4625 28.0628 10.3626C28.1627 10.2627 28.3197 10.1342 28.5624 9.99154L28.4482 9.79164C28.1484 9.97724 27.7202 10.2199 27.1635 10.5196C26.5782 10.8479 26.1357 11.0763 25.8359 11.2048L25.9359 11.4189C26.1928 11.2905 26.3784 11.2191 26.5211 11.2048C26.6496 11.1905 26.7781 11.2191 26.878 11.319C26.9922 11.4189 27.1064 11.5902 27.2491 11.8472L30.0327 16.9574C30.1754 17.2144 30.2468 17.4142 30.2753 17.557C30.3039 17.6997 30.261 17.8282 30.1754 17.9281C30.0898 18.028 29.9185 18.1565 29.6758 18.2992L29.79 18.4991C30.4352 18.1204 31.4113 17.59 32.6913 16.8944L32.7591 16.8575C33.8582 16.258 34.6576 15.844 35.1287 15.6156C34.8146 15.1446 34.5577 14.7163 34.3436 14.3309C34.158 13.9883 34.0152 13.7028 33.9153 13.4745L33.6727 13.6029C33.9011 14.1454 34.0295 14.5593 34.0723 14.8876C34.1152 15.2159 34.0581 15.4872 33.9011 15.7298C33.744 15.9725 33.4443 16.2152 33.016 16.4436L32.2595 16.8575C32.0168 16.986 31.817 17.0716 31.6885 17.0859C31.56 17.1002 31.4316 17.0716 31.3316 16.9717C31.2174 16.8718 31.1032 16.7005 30.9605 16.4436L28.2055 11.3333C28.0628 11.0763 27.9914 10.8765 27.9628 10.7337ZM45.4491 11.276C45.5348 11.7043 45.6633 12.1896 45.8203 12.732C45.2921 12.8177 44.4214 12.9747 43.1938 13.2174C41.7235 13.5029 40.6243 13.7313 39.8678 13.9026L39.825 13.6742C40.0962 13.6028 40.296 13.5457 40.4102 13.46C40.5244 13.3887 40.5958 13.2745 40.6101 13.146C40.6243 13.0033 40.6101 12.7891 40.553 12.5037L39.4396 6.80815C39.3825 6.52266 39.3254 6.32282 39.2397 6.19435C39.1541 6.06588 39.0684 5.9945 38.9257 5.98023C38.7972 5.95168 38.5831 5.96595 38.3119 6.00878L38.269 5.78038C39.0256 5.65191 40.139 5.45207 41.595 5.16658L42.1205 5.06041C42.9743 4.88811 43.5966 4.76255 43.9789 4.66697C44.0217 5.18085 44.0931 5.63764 44.1644 6.03733C44.2215 6.33709 44.2786 6.56548 44.3357 6.73678L44.0788 6.79388C43.9218 6.30854 43.779 5.95168 43.6505 5.72329C43.5221 5.49489 43.3365 5.35215 43.1224 5.28078C42.894 5.2094 42.5942 5.2094 42.1803 5.29505L41.2239 5.48062C40.9527 5.53772 40.7528 5.59482 40.6386 5.66619C40.5244 5.73756 40.453 5.83748 40.4245 5.98023C40.4102 6.12297 40.4245 6.33709 40.4816 6.62258L41.0098 9.33474L41.7663 9.17774C42.1517 9.10634 42.3801 8.93506 42.4658 8.67812C42.5514 8.42117 42.58 8.17851 42.5657 7.93584C42.5598 7.83626 42.554 7.7511 42.5491 7.68036L42.549 7.67935C42.5421 7.57825 42.5371 7.50672 42.5371 7.46478L42.7941 7.40768C42.8369 7.79309 42.894 8.14996 42.9654 8.49255L43.0796 9.03494C43.1509 9.42044 43.2794 9.96284 43.465 10.648L43.208 10.7051C43.1985 10.6668 43.1696 10.5772 43.1216 10.4276L43.0671 10.258L43.0367 10.1626C42.9368 9.84864 42.7941 9.63454 42.58 9.50604C42.3658 9.37754 42.1232 9.34904 41.8091 9.40614L41.0526 9.54884L41.595 12.3038C41.6521 12.5893 41.7092 12.7891 41.7806 12.9176C41.8519 13.0318 41.9519 13.1032 42.0946 13.1317C42.2231 13.146 42.4372 13.1317 42.7084 13.0746L43.5506 12.9033C44.0217 12.8034 44.3785 12.6749 44.6069 12.5037C44.8353 12.3324 44.9638 12.0897 45.0209 11.7899C45.078 11.4902 45.078 11.0619 45.0352 10.5052L45.2921 10.4481C45.3091 10.5332 45.3261 10.6273 45.3449 10.7314V10.7316C45.3735 10.8893 45.4062 11.0697 45.4491 11.276ZM34.1011 62.8642C34.6007 63.9348 35.1717 64.9055 35.8283 65.7905C36.9418 67.2037 38.1265 67.8746 39.4541 67.7604C40.7245 67.6605 42.0235 66.7897 43.3225 65.1482C44.9783 63.0926 46.4914 60.9229 47.8903 58.639C49.275 56.3693 50.5882 54.0283 51.7873 51.6159C52.9863 49.2035 54.114 46.7483 55.1703 44.2645C56.2267 41.7665 57.2402 39.2684 58.2394 36.7418C58.8389 35.1288 59.2529 33.473 59.4384 31.7457C59.624 30.0185 59.8524 28.277 60.1236 26.5213V25.6933C60.1236 25.3365 60.0808 24.9939 60.0094 24.6656C59.938 24.3373 59.7953 24.1231 59.5812 24.0089C59.3813 23.8948 59.0816 24.0089 58.6962 24.3515C57.7683 25.4221 57.0403 26.6926 56.4836 28.1914C55.9269 29.6759 55.3559 31.0891 54.7849 32.4309C53.643 35.0717 52.4725 37.7553 51.2877 40.4675C50.1029 43.1939 48.8467 45.8775 47.5335 48.5326C46.2202 51.2019 44.8213 53.8142 43.3225 56.3979C41.8237 58.9816 40.1821 61.4796 38.3835 63.892C37.9981 63.0213 37.7697 61.8222 37.6983 60.3091C37.6269 58.796 37.6555 57.0973 37.784 55.2274C37.9124 53.3574 38.1265 51.3875 38.412 49.3463C38.6975 47.305 39.0258 45.3351 39.4113 43.4651C39.7824 41.5952 40.1964 39.8822 40.6103 38.3263C41.0243 36.7847 41.4382 35.5428 41.8665 34.6292C42.1377 34.0154 42.0235 33.4159 41.5239 32.8449C41.0243 32.2739 40.3962 31.8171 39.6254 31.4745C38.8545 31.1319 38.098 30.9606 37.3272 30.9606C36.5563 30.9606 36.0567 31.2033 35.8283 31.7029C34.458 36.1851 33.4588 40.7244 32.845 45.3351C32.2312 49.9458 32.2454 54.6992 32.9021 59.5954C33.2018 60.7088 33.6015 61.7936 34.1011 62.8642ZM59.467 59.3099C58.6962 58.2393 57.9397 57.1544 57.1974 56.041C56.4551 54.9276 56.084 53.7143 56.084 52.3725C56.084 50.8879 56.5122 49.4747 57.3687 48.1472C58.2252 46.834 59.2101 45.7634 60.3235 44.964C60.7803 44.6642 61.2514 44.4073 61.7224 44.2217C62.1935 44.0361 62.7074 44.0504 63.2498 44.2788C63.4782 44.393 63.7209 44.4787 63.9635 44.5358C64.2062 44.5929 64.4346 44.6642 64.6202 44.7356C64.8057 44.807 65.0198 44.9212 65.2482 45.0782C65.4766 45.2352 65.5908 45.4351 65.5908 45.7063C65.5908 46.7769 65.6194 47.6476 65.6765 48.3185C65.7336 48.9894 65.8192 49.5604 65.9334 50.0457C66.0476 50.5311 66.1618 50.945 66.276 51.3019C66.3902 51.673 66.5044 52.0584 66.6186 52.4724C66.69 52.8578 66.6757 53.1861 66.5615 53.4431C66.4473 53.7143 66.1618 53.7428 65.705 53.5573C64.8628 53.2575 64.2347 52.6437 63.835 51.7158C63.4354 50.788 63.1356 49.9601 62.95 49.1893C62.9072 49.0322 62.8216 48.7753 62.6645 48.3899C62.5075 48.0045 62.4219 47.7333 62.3791 47.5905C62.0793 47.5191 61.7081 47.6191 61.2942 47.9045C60.8802 48.19 60.4948 48.5897 60.1808 49.0751C59.8525 49.5747 59.6383 50.1456 59.5527 50.8023C59.4528 51.4589 59.5812 52.1013 59.9238 52.7579C60.0808 52.9863 60.295 53.2718 60.5805 53.5858L60.5867 53.593C60.8701 53.9189 61.1535 54.2449 61.4369 54.585L61.438 54.5864C61.7231 54.9285 62.0083 55.2706 62.2934 55.5842L62.4264 55.7308L62.4273 55.7319C62.6553 55.9831 62.8513 56.1993 63.0071 56.3551C63.2355 56.5835 63.3925 56.7119 63.4639 56.7262C63.5353 56.7405 63.7351 56.6977 64.0349 56.5835C64.4203 56.3979 65.0056 56.141 65.7907 55.8412C66.5758 55.5414 67.4037 55.2274 68.2602 54.9276C69.1166 54.6279 69.9446 54.3709 70.7297 54.1568C71.5148 53.9427 72.1143 53.8427 72.5425 53.8427C72.8137 53.8427 72.9993 53.9427 73.1135 54.1282C73.2277 54.2424 73.2134 54.3995 73.0564 54.585C72.8994 54.7706 72.6995 54.9704 72.4569 55.156C72.2142 55.3416 71.943 55.5129 71.686 55.6699C71.5207 55.7657 71.3924 55.8349 71.3014 55.884L71.3011 55.8842C71.243 55.9156 71.2 55.9388 71.1722 55.9554C70.5155 56.3408 69.7019 56.769 68.7027 57.2544C67.7035 57.7254 66.847 58.1965 66.119 58.6533C66.0476 58.7246 65.9049 58.8103 65.6907 58.8817C65.4766 58.953 65.3196 59.0387 65.2054 59.1101C65.6622 60.1378 65.9905 61.0371 66.1761 61.7794C66.3616 62.5217 66.433 63.2354 66.3759 63.9348C66.3188 64.62 66.1761 65.3195 65.9477 66.0332C65.7193 66.7469 65.4052 67.5606 65.0341 68.4741C64.4917 69.3592 63.9492 70.2014 63.3925 71.0007C62.8358 71.8001 62.222 72.5281 61.5226 73.1847C60.8374 73.8414 60.0808 74.3553 59.2815 74.7264C58.4821 75.1118 57.5971 75.2974 56.6407 75.2974C56.0983 75.2974 55.5844 75.226 55.0848 75.0975C54.5852 74.9691 54.1712 74.6836 53.8286 74.2696C52.9436 73.3132 52.4582 72.2712 52.344 71.1435C52.2299 70.0158 52.3298 68.9024 52.6295 67.789C52.8579 67.1038 53.1434 66.4757 53.486 65.8905C54.3282 64.4345 55.2561 63.2068 56.2695 62.1934C57.2973 61.1941 58.3536 60.2235 59.467 59.3099ZM61.4227 61.8936C60.9944 62.3218 60.4234 62.9214 59.6954 63.7065C58.9674 64.4916 58.2965 65.348 57.6542 66.2616C57.0261 67.1752 56.5122 68.0887 56.1125 68.988C55.7128 69.8873 55.6129 70.6582 55.7985 71.3148C56.5693 70.9722 57.3544 70.4012 58.1538 69.6161C58.9532 68.831 59.6669 67.9745 60.2807 67.0324C60.8945 66.0903 61.3227 65.1625 61.5654 64.2489C61.8081 63.321 61.7652 62.5359 61.4227 61.8936ZM17.771 50.16C17.771 68.0174 32.3025 82.5489 50.1599 82.5489C68.0174 82.5489 82.5488 68.0174 82.5488 50.16C82.5488 32.3025 68.0174 17.7711 50.1599 17.7711C32.3025 17.7711 17.771 32.3025 17.771 50.16ZM19.1984 50.16C19.1984 33.0876 33.0876 19.1985 50.1599 19.1985C67.2323 19.1985 81.1214 33.0876 81.1214 50.16C81.1214 67.2323 67.2323 81.1214 50.1599 81.1214C33.0876 81.1214 19.1984 67.2323 19.1984 50.16Z" fill="white"/>
</svg>
